<svg width="24" height="24" viewBox="0 0 24 24" fill="none" xmlns="http://www.w3.org/2000/svg">
<path d="M21.0799 6.99961C20.9072 6.70023 20.6597 6.45074 20.3618 6.27548C20.0638 6.10022 19.7256 6.00518 19.3799 5.99961H6.57994L5.99994 3.73961C5.94134 3.52145 5.8106 3.32955 5.62902 3.19518C5.44743 3.06081 5.2257 2.99188 4.99994 2.99961H2.99994C2.73472 2.99961 2.48037 3.10497 2.29283 3.2925C2.1053 3.48004 1.99994 3.73439 1.99994 3.99961C1.99994 4.26483 2.1053 4.51918 2.29283 4.70672C2.48037 4.89425 2.73472 4.99961 2.99994 4.99961H4.23994L6.99994 15.2596C7.05854 15.4778 7.18928 15.6697 7.37086 15.804C7.55245 15.9384 7.77418 16.0073 7.99994 15.9996H16.9999C17.1846 15.9991 17.3655 15.9474 17.5226 15.8503C17.6797 15.7532 17.8068 15.6145 17.8899 15.4496L21.1699 8.88961C21.3121 8.59163 21.3783 8.26308 21.3626 7.93329C21.3469 7.60351 21.2498 7.28274 21.0799 6.99961Z" fill="#131313"/>
<path d="M7.49988 21C8.32831 21 8.99988 20.3284 8.99988 19.5C8.99988 18.6716 8.32831 18 7.49988 18C6.67145 18 5.99988 18.6716 5.99988 19.5C5.99988 20.3284 6.67145 21 7.49988 21Z" fill="#131313"/>
<path d="M17.4998 21C18.3283 21 18.9998 20.3284 18.9998 19.5C18.9998 18.6716 18.3283 18 17.4998 18C16.6714 18 15.9998 18.6716 15.9998 19.5C15.9998 20.3284 16.6714 21 17.4998 21Z" fill="#131313"/>
</svg>
