<svg width="32" height="32" viewBox="0 0 32 32" fill="none" xmlns="http://www.w3.org/2000/svg">
<g clip-path="url(#clip0_541_7448)">
<path d="M27.5974 26.2345H0.479562C0.352375 26.2345 0.230396 26.184 0.140461 26.094C0.0505252 26.0041 0 25.8821 0 25.7549L0 9.77644C0 9.64925 0.0505252 9.52727 0.140461 9.43734C0.230396 9.3474 0.352375 9.29688 0.479562 9.29688H27.5974C27.7246 9.29688 27.8465 9.3474 27.9365 9.43734C28.0264 9.52727 28.0769 9.64925 28.0769 9.77644V25.7549C28.0769 25.8821 28.0264 26.0041 27.9364 26.094C27.8465 26.1839 27.7246 26.2345 27.5974 26.2345Z" fill="#5CC45C"/>
<path d="M27.5974 9.29688H0.479562C0.352375 9.29688 0.230396 9.3474 0.140461 9.43734C0.0505252 9.52727 0 9.64925 0 9.77644L0 25.341H28.0769V9.77644C28.0769 9.64926 28.0264 9.52729 27.9364 9.43736C27.8465 9.34742 27.7246 9.29689 27.5974 9.29688Z" fill="#4EAD4E"/>
<path d="M29.4948 24.5323H2.37702C2.24984 24.5323 2.12786 24.4818 2.03792 24.3918C1.94799 24.3019 1.89746 24.1799 1.89746 24.0527V8.07429C1.89746 7.9471 1.94799 7.82512 2.03792 7.73519C2.12786 7.64525 2.24984 7.59473 2.37702 7.59473H29.4948C29.622 7.59473 29.744 7.64525 29.8339 7.73519C29.9239 7.82512 29.9744 7.9471 29.9744 8.07429V24.0528C29.9744 24.18 29.9238 24.3019 29.8339 24.3918C29.744 24.4817 29.622 24.5323 29.4948 24.5323Z" fill="#5CC45C"/>
<path d="M29.4948 7.59473H2.37702C2.24984 7.59473 2.12786 7.64525 2.03792 7.73519C1.94799 7.82512 1.89746 7.9471 1.89746 8.07429V23.5665H29.9743V8.07429C29.9743 8.01132 29.9619 7.94896 29.9379 7.89077C29.9138 7.83259 29.8784 7.77972 29.8339 7.73519C29.7894 7.69066 29.7365 7.65533 29.6783 7.63123C29.6202 7.60713 29.5578 7.59473 29.4948 7.59473Z" fill="#4EAD4E"/>
<path d="M31.5202 22.7023H4.40241C4.27523 22.7023 4.15325 22.6517 4.06331 22.5618C3.97338 22.4719 3.92285 22.3499 3.92285 22.2227V6.24421C3.92285 6.11702 3.97338 5.99504 4.06331 5.90511C4.15325 5.81517 4.27523 5.76465 4.40241 5.76465H31.5202C31.6474 5.76465 31.7694 5.81517 31.8593 5.90511C31.9493 5.99504 31.9998 6.11702 31.9998 6.24421V22.2227C31.9998 22.3499 31.9493 22.4719 31.8593 22.5618C31.7694 22.6517 31.6474 22.7023 31.5202 22.7023Z" fill="#5CC45C"/>
<path d="M31.5203 5.76465H28.5317V22.7022H31.5203C31.6475 22.7022 31.7695 22.6517 31.8594 22.5618C31.9493 22.4718 31.9999 22.3498 31.9999 22.2226V6.24421C31.9999 6.11702 31.9493 5.99504 31.8594 5.90511C31.7695 5.81517 31.6475 5.76465 31.5203 5.76465Z" fill="#4EAD4E"/>
<path d="M7.61296 20.9623C7.51165 19.9343 6.69146 19.1141 5.6634 19.0128C5.60527 19.007 5.56152 18.9571 5.56152 18.8988V9.56876C5.56152 9.51038 5.60527 9.46045 5.6634 9.45476C6.69146 9.35345 7.51165 8.53326 7.61296 7.5052C7.61871 7.44707 7.66859 7.40332 7.72696 7.40332H28.1963C28.2547 7.40332 28.3047 7.44707 28.3103 7.5052C28.4117 8.53326 29.2318 9.35345 30.2599 9.45476C30.318 9.46051 30.3618 9.51038 30.3618 9.56876V18.8988C30.3618 18.9571 30.318 19.0071 30.2599 19.0128C29.2318 19.1141 28.4117 19.9343 28.3103 20.9623C28.3046 21.0204 28.2547 21.0642 28.1963 21.0642H7.72702C7.66859 21.0642 7.61871 21.0204 7.61296 20.9623Z" fill="#A0E557"/>
<path d="M30.2601 9.45476C29.2321 9.35344 28.4119 8.53326 28.3106 7.5052C28.3048 7.44707 28.2549 7.40332 28.1966 7.40332H26.8208V21.0643H28.1966C28.2549 21.0643 28.3049 21.0206 28.3106 20.9624C28.4119 19.9344 29.2321 19.1142 30.2601 19.0129C30.3182 19.0071 30.362 18.9573 30.362 18.8988V9.56882C30.3619 9.51045 30.3182 9.46051 30.2601 9.45476Z" fill="#93CC4A"/>
<path d="M17.9614 18.8671C20.5205 18.8671 22.5951 16.7925 22.5951 14.2334C22.5951 11.6742 20.5205 9.59961 17.9614 9.59961C15.4022 9.59961 13.3276 11.6742 13.3276 14.2334C13.3276 16.7925 15.4022 18.8671 17.9614 18.8671Z" fill="#F3E8D7"/>
<path d="M17.9615 9.59961C17.354 9.59907 16.7523 9.71839 16.1909 9.95074C17.8713 10.6463 19.0539 12.3014 19.0539 14.2332C19.0539 16.165 17.8714 17.82 16.1909 18.5156C16.7523 18.748 17.354 18.8673 17.9615 18.8667C20.5206 18.8667 22.5951 16.7922 22.5951 14.2332C22.5951 11.6741 20.5205 9.59961 17.9615 9.59961Z" fill="#DDD1C3"/>
<path d="M17.8396 16.5711C16.9237 16.5563 16.3032 16.0615 16.3032 15.6995C16.3032 15.5222 16.4583 15.2785 16.643 15.2785C16.8867 15.2785 17.0862 15.7955 17.8396 15.8546V14.1188C17.1748 13.8824 16.4362 13.6165 16.4362 12.671C16.4362 11.7403 17.1378 11.371 17.8396 11.2971V11.083C17.8396 10.9943 17.9282 10.9131 18.0538 10.9131C18.1647 10.9131 18.2754 10.9943 18.2754 11.083V11.2824C18.7777 11.2971 19.4868 11.4523 19.4868 11.8142C19.4868 11.9545 19.3833 12.2352 19.1618 12.2352C18.9845 12.2352 18.7925 11.9988 18.2754 11.9619V13.4613C18.918 13.6977 19.6197 14.0227 19.6197 15.0273C19.6197 15.9358 19.0731 16.4381 18.2754 16.5489V16.8C18.2754 16.8886 18.1646 16.9699 18.0538 16.9699C17.9283 16.9699 17.8396 16.8886 17.8396 16.8V16.5711ZM17.8839 13.321V11.9767C17.4702 12.0284 17.1748 12.2131 17.1748 12.5971C17.1748 13.0182 17.4924 13.1733 17.8839 13.321ZM18.231 14.2813V15.8399C18.6299 15.766 18.881 15.5296 18.881 15.1086C18.8811 14.6432 18.593 14.4364 18.231 14.2813Z" fill="#4EAD4E"/>
</g>
<defs>
<clipPath id="clip0_541_7448">
<rect width="32" height="32" fill="white"/>
</clipPath>
</defs>
</svg>
