<svg width="517" height="408" viewBox="0 0 517 408" fill="none" xmlns="http://www.w3.org/2000/svg">
<g filter="url(#filter0_d_192_1612)">
<g filter="url(#filter1_d_192_1612)">
<path d="M496.559 214.104V289.438H316.544V187.775H346.168V263.571H368.839V215.946H399.385V262.65H415.102V216.407H449.374V262.189H464.629V215.486L496.559 214.104Z" fill="#A7A7A7"/>
</g>
<g filter="url(#filter2_d_192_1612)">
<path d="M385.974 187.775H471.582C471.582 187.775 474.704 203.154 460.939 203.721C447.173 204.288 445.435 190.894 445.435 190.894C445.435 190.894 446.144 204.749 432.024 204.536C417.904 204.324 417.798 191.496 417.798 191.496C417.798 191.496 418.046 204.678 404.6 204.572C391.154 204.465 385.619 195.429 385.974 187.811V187.775Z" fill="#A7A7A7"/>
</g>
<g filter="url(#filter3_d_192_1612)">
<path d="M305.901 240.892C304.978 205.316 235.122 215.946 235.122 215.946C235.122 215.946 215.219 233.061 170.801 230.723C127.199 228.455 160.229 189.299 161.506 187.775C84.2704 214.104 144.405 251.523 144.405 251.523L273.509 248.759L273.048 263.996L106.479 264.492L105.061 217.328C105.061 217.328 88.8825 217.789 53.2626 217.789C17.6428 217.789 19.9136 238.589 19.9136 238.589L21.7938 292.202L72.6692 294.045C73.5916 309.317 50.46 318.105 50.46 318.105C87.9601 336.567 107.402 292.663 107.402 292.663H305.901C305.901 292.663 306.823 276.505 305.901 240.892ZM58.6909 265.449V252.621H73.5916L75.33 265.449H58.6909Z" fill="#F37531"/>
</g>
<g filter="url(#filter4_d_192_1612)">
<path d="M119.429 192.382C119.429 192.382 71.782 128.599 137.948 75.907C137.948 75.907 128.44 105.176 144.263 106.275C146.711 106.452 149.088 105.212 150.437 103.157C158.667 90.896 192.407 42.5627 213.836 42.1729C213.836 42.1729 194.039 68.1822 216.319 70.0248C220.293 70.3438 224.124 68.4303 226.182 65.0285C233.916 52.3782 259.496 19.9197 314.238 29.6644C314.238 29.6644 254.706 44.7242 254.351 74.844C254.28 79.6277 257.58 83.7736 262.192 84.943C269.429 86.7502 281.74 87.2817 295.719 76.7929C295.719 76.7929 291.816 93.6954 250.768 114.921C247.504 116.622 244.595 118.925 242.112 121.654C233.49 131.15 217.525 152.801 238.812 164.14C238.812 164.14 261.021 131.327 287.417 126.225C287.417 126.225 250.768 165.983 247.149 190.468C243.531 214.954 184.602 240.184 160.158 220.057C160.158 220.057 195.103 190.965 195.777 153.474C195.777 152.163 195.955 150.852 196.345 149.612C198.509 142.171 207.343 116.87 226.466 116.268C229.304 116.197 231.894 114.779 233.348 112.37C237.251 105.991 241.934 94.5813 224.763 95.4317C222.989 95.5026 221.392 94.475 220.718 92.845C219.015 88.5928 215.077 81.2577 208.585 82.6043C205.676 83.2067 203.334 85.4391 202.199 88.1676C200.531 92.1363 198.154 99.2233 199.644 105.07C200.354 107.869 199.644 110.775 198.154 113.22C193.329 121.051 181.657 135.899 159.909 141.958C156.61 142.879 153.559 144.438 150.72 146.387C141.283 152.907 123.19 168.251 119.464 192.276L119.429 192.382Z" fill="#F37531"/>
</g>
<g filter="url(#filter5_d_192_1612)">
<path d="M348.474 327.85V310.345C348.474 310.345 310.123 309.636 316.544 339.118C322.966 368.6 349.184 356.977 349.184 356.977L350.39 346.595C350.39 346.595 334.425 349.89 334.957 338.445C335.489 326.999 348.51 327.885 348.51 327.885L348.474 327.85Z" fill="#F37531"/>
</g>
<g filter="url(#filter6_d_192_1612)">
<path d="M353.335 311.408L354.718 355.772L370.471 354.851V339.579L378.559 346.276V355.772H392.893V310.345H376.254L377.389 337.523L370.683 331.96L370.222 310.345L353.335 311.408Z" fill="#F37531"/>
</g>
<g filter="url(#filter7_d_192_1612)">
<path d="M419.998 310.345H404.494L396.157 352.3L402.401 357.154L405.168 349.04L414.889 349.536L415.812 354.603L430.145 353.682L419.998 310.345ZM406.552 341.209L408.184 331.96L415.812 343.724L406.552 341.209Z" fill="#F37531"/>
</g>
<g filter="url(#filter8_d_192_1612)">
<path d="M459.555 310.345C459.555 310.345 422.765 307.687 432.024 337.842C441.284 367.998 459.555 355.737 459.555 355.737V346.949C459.555 346.949 447.528 346.701 447.989 336.071C448.451 325.44 459.555 328.452 459.555 328.452V310.309V310.345Z" fill="#F37531"/>
</g>
<g filter="url(#filter9_d_192_1612)">
<path d="M481.055 308.148C481.055 308.148 455.831 309.778 465.339 343.725C465.339 343.725 468.106 355.525 485.703 357.155C485.703 357.155 498.404 353.434 500.036 339.827C500.036 339.827 506.741 311.833 481.055 308.148ZM483.503 345C483.503 345 467.29 339.366 480.842 327.46C480.842 327.46 495.176 334.618 483.503 345Z" fill="#F37531"/>
</g>
<g filter="url(#filter10_d_192_1612)">
<path d="M97.8397 354.05C96.1741 354.05 94.6705 353.854 93.3288 353.46C91.987 353.09 90.8304 352.524 89.8588 351.76C88.8872 350.997 88.1354 350.048 87.6033 348.915C87.0944 347.804 86.8399 346.509 86.8399 345.028C86.8399 344.496 86.8862 343.872 86.9787 343.155C87.0713 342.438 87.2448 341.628 87.4992 340.726C87.7537 339.8 88.1354 338.771 88.6443 337.637L92.9124 339.129C92.6579 339.847 92.4381 340.506 92.2531 341.107C92.068 341.686 91.9292 342.229 91.8367 342.738C91.7441 343.224 91.6979 343.71 91.6979 344.196C91.6979 345.098 91.9061 345.931 92.3225 346.694C92.7389 347.457 93.4097 348.059 94.335 348.498C95.2604 348.961 96.4748 349.192 97.9785 349.192C99.3665 349.192 100.523 349.03 101.448 348.707C102.374 348.406 103.102 347.978 103.635 347.423C104.167 346.891 104.548 346.266 104.78 345.549C105.011 344.832 105.127 344.057 105.127 343.224C105.127 342.576 105.046 341.848 104.884 341.038C104.745 340.228 104.537 339.349 104.259 338.401C103.982 337.429 103.669 336.411 103.322 335.347L108.18 334.098C108.504 335.44 108.758 336.481 108.944 337.221C109.152 337.961 109.314 338.516 109.429 338.887C109.661 339.581 109.938 340.113 110.262 340.483C110.609 340.83 110.991 341.061 111.407 341.177C111.847 341.292 112.333 341.35 112.865 341.35C113.304 341.35 113.709 341.281 114.079 341.142C114.449 341.003 114.785 340.714 115.085 340.275C115.409 339.812 115.698 339.106 115.953 338.158C116.207 337.209 116.439 335.902 116.647 334.237L121.227 334.966C121.135 335.498 121.042 336.064 120.95 336.666C120.857 337.267 120.776 337.834 120.707 338.366C120.637 338.875 120.603 339.291 120.603 339.615C120.603 339.916 120.684 340.194 120.846 340.448C121.031 340.703 121.354 340.911 121.817 341.073C122.28 341.235 122.939 341.316 123.795 341.316C124.859 341.316 125.634 341.096 126.12 340.656C126.629 340.194 126.883 339.5 126.883 338.574C126.883 338.042 126.872 337.475 126.849 336.874C126.825 336.249 126.779 335.555 126.71 334.792C126.663 334.006 126.571 333.115 126.432 332.12L130.908 331.773C131.093 333.925 131.302 335.636 131.533 336.909C131.764 338.181 132.065 339.141 132.435 339.789C132.828 340.413 133.326 340.83 133.927 341.038C134.529 341.223 135.281 341.316 136.183 341.316C137.062 341.316 137.686 341.547 138.056 342.01C138.45 342.449 138.646 343.004 138.646 343.675C138.646 344.392 138.403 344.994 137.918 345.48C137.432 345.942 136.738 346.173 135.836 346.173C134.864 346.173 133.927 346.046 133.025 345.792C132.123 345.537 131.325 345.086 130.631 344.439C129.96 343.768 129.451 342.831 129.104 341.628L130.423 341.836C130.122 343.085 129.613 344.022 128.896 344.647C128.202 345.271 127.415 345.688 126.536 345.896C125.657 346.081 124.778 346.173 123.899 346.173C122.742 346.173 121.713 346 120.811 345.653C119.932 345.306 119.238 344.809 118.729 344.161C118.243 343.513 118.012 342.727 118.035 341.801H119.215C118.868 343.074 118.393 344.022 117.792 344.647C117.19 345.271 116.52 345.688 115.779 345.896C115.039 346.081 114.287 346.173 113.524 346.173C112.922 346.173 112.344 346.116 111.789 346C111.234 345.884 110.725 345.699 110.262 345.445C109.823 345.167 109.441 344.809 109.117 344.369C108.793 343.906 108.573 343.351 108.458 342.704L109.742 344.092C109.695 345.665 109.383 347.064 108.805 348.29C108.226 349.516 107.417 350.557 106.376 351.413C105.358 352.269 104.12 352.917 102.663 353.356C101.229 353.819 99.6209 354.05 97.8397 354.05ZM116.786 324.694C116.207 324.694 115.698 324.475 115.259 324.035C114.842 323.596 114.634 323.075 114.634 322.474C114.634 321.872 114.842 321.363 115.259 320.947C115.698 320.531 116.207 320.322 116.786 320.322C117.387 320.322 117.896 320.531 118.312 320.947C118.729 321.363 118.937 321.872 118.937 322.474C118.937 323.075 118.729 323.596 118.312 324.035C117.896 324.475 117.387 324.694 116.786 324.694ZM114.01 329.275C113.431 329.275 112.922 329.055 112.483 328.616C112.067 328.176 111.858 327.655 111.858 327.054C111.858 326.453 112.067 325.944 112.483 325.527C112.922 325.111 113.431 324.903 114.01 324.903C114.611 324.903 115.12 325.111 115.536 325.527C115.953 325.944 116.161 326.453 116.161 327.054C116.161 327.655 115.953 328.176 115.536 328.616C115.12 329.055 114.611 329.275 114.01 329.275ZM119.388 329.275C118.81 329.275 118.301 329.055 117.861 328.616C117.445 328.176 117.237 327.655 117.237 327.054C117.237 326.453 117.445 325.944 117.861 325.527C118.301 325.111 118.81 324.903 119.388 324.903C119.99 324.903 120.499 325.111 120.915 325.527C121.331 325.944 121.539 326.453 121.539 327.054C121.539 327.655 121.331 328.176 120.915 328.616C120.499 329.055 119.99 329.275 119.388 329.275ZM135.886 346.173L136.233 341.316C136.765 341.316 137.216 341.188 137.586 340.934C137.98 340.656 138.385 340.205 138.801 339.581C139.217 338.933 139.703 338.065 140.258 336.978C140.952 335.59 141.669 334.503 142.41 333.716C143.173 332.93 143.948 332.375 144.735 332.051C145.544 331.704 146.354 331.53 147.163 331.53C148.181 331.53 149.13 331.75 150.009 332.19C150.888 332.629 151.651 333.231 152.299 333.994C152.947 334.734 153.444 335.59 153.791 336.562C154.161 337.51 154.346 338.493 154.346 339.511C154.346 340.737 154.08 341.848 153.548 342.842C153.039 343.814 152.322 344.589 151.397 345.167C150.495 345.722 149.454 346 148.274 346C147.279 346 146.123 345.827 144.804 345.48C143.485 345.133 142.097 344.404 140.64 343.293L142.41 339.095C143.451 339.812 144.422 340.332 145.324 340.656C146.25 340.98 147.013 341.142 147.615 341.142C148.077 341.142 148.459 341.096 148.76 341.003C149.06 340.911 149.28 340.76 149.419 340.552C149.558 340.344 149.627 340.066 149.627 339.719C149.627 339.234 149.512 338.736 149.28 338.227C149.049 337.718 148.737 337.29 148.343 336.943C147.973 336.573 147.534 336.388 147.025 336.388C146.539 336.388 146.123 336.573 145.776 336.943C145.452 337.29 145.128 337.799 144.804 338.47C144.503 339.118 144.133 339.881 143.694 340.76C143.161 341.824 142.641 342.715 142.132 343.432C141.623 344.126 141.08 344.681 140.501 345.098C139.946 345.491 139.287 345.769 138.523 345.931C137.783 346.093 136.904 346.173 135.886 346.173ZM155.248 354.016L153.479 349.713C154.705 349.296 155.827 348.811 156.844 348.255C157.885 347.7 158.788 347.087 159.551 346.416C160.314 345.746 160.904 345.017 161.321 344.23C161.737 343.421 161.945 342.553 161.945 341.628C161.945 340.656 161.725 339.592 161.286 338.435C160.846 337.279 160.314 336.099 159.69 334.896L164.235 332.71C164.652 333.427 165.01 334.202 165.311 335.035C165.635 335.845 165.901 336.573 166.109 337.221C166.317 337.869 166.456 338.308 166.526 338.54C166.849 339.65 167.289 340.39 167.844 340.76C168.422 341.13 169.348 341.316 170.62 341.316C171.499 341.316 172.124 341.547 172.494 342.01C172.887 342.449 173.084 343.004 173.084 343.675C173.084 344.392 172.841 344.994 172.355 345.48C171.869 345.942 171.175 346.173 170.273 346.173C169.325 346.173 168.492 346.035 167.775 345.757C167.058 345.48 166.479 345.075 166.04 344.543C165.623 344.011 165.357 343.386 165.242 342.669L166.526 343.398C166.387 344.624 165.982 345.78 165.311 346.867C164.663 347.978 163.819 348.996 162.778 349.921C161.737 350.846 160.569 351.656 159.273 352.35C157.978 353.044 156.636 353.599 155.248 354.016ZM170.315 346.173L170.662 341.35C171.564 341.373 172.397 341.362 173.16 341.316C173.923 341.269 174.606 341.2 175.207 341.107C175.832 341.015 176.375 340.911 176.838 340.795C177.324 340.679 177.729 340.575 178.053 340.483C178.839 340.228 179.51 339.928 180.065 339.581C180.62 339.21 181.048 338.794 181.349 338.331C181.65 337.869 181.8 337.371 181.8 336.839C181.8 336.423 181.708 336.007 181.523 335.59C181.361 335.151 181.118 334.792 180.794 334.514C180.47 334.237 180.088 334.098 179.649 334.098C179.232 334.098 178.851 334.225 178.504 334.48C178.157 334.734 177.879 335.081 177.671 335.521C177.463 335.937 177.359 336.423 177.359 336.978C177.359 337.464 177.474 337.927 177.706 338.366C177.937 338.782 178.261 339.187 178.677 339.581C179.094 339.974 179.591 340.344 180.169 340.691L175.554 342.461C175.045 341.975 174.56 341.454 174.097 340.899C173.657 340.344 173.287 339.719 172.986 339.025C172.709 338.308 172.57 337.51 172.57 336.631C172.57 335.567 172.778 334.595 173.195 333.716C173.611 332.837 174.166 332.085 174.86 331.461C175.554 330.813 176.329 330.316 177.185 329.969C178.041 329.622 178.897 329.448 179.753 329.448C181.141 329.448 182.344 329.772 183.362 330.42C184.38 331.068 185.166 331.912 185.721 332.953C186.3 333.994 186.589 335.127 186.589 336.354C186.589 337.487 186.381 338.505 185.964 339.407C185.548 340.286 184.981 341.073 184.264 341.767C183.57 342.438 182.795 343.027 181.939 343.536C181.106 344.045 180.262 344.473 179.406 344.82C178.99 345.005 178.469 345.179 177.844 345.341C177.22 345.503 176.514 345.653 175.728 345.792C174.941 345.907 174.097 346 173.195 346.069C172.292 346.139 171.332 346.173 170.315 346.173ZM188.636 346.173C187.294 346.173 185.976 346.104 184.68 345.965C183.385 345.827 182.182 345.618 181.071 345.341C179.984 345.063 179.036 344.728 178.226 344.334L180.62 340.587C181.314 340.772 182.124 340.922 183.049 341.038C183.998 341.13 184.981 341.2 185.999 341.246C187.04 341.292 188.035 341.316 188.983 341.316C189.862 341.316 190.487 341.547 190.857 342.01C191.25 342.449 191.447 343.004 191.447 343.675C191.447 344.392 191.204 344.994 190.718 345.48C190.232 345.942 189.538 346.173 188.636 346.173ZM182.806 326.291C182.136 326.291 181.557 326.059 181.071 325.597C180.609 325.111 180.377 324.544 180.377 323.896C180.377 323.226 180.609 322.647 181.071 322.161C181.557 321.676 182.136 321.433 182.806 321.433C183.454 321.433 184.009 321.676 184.472 322.161C184.935 322.647 185.166 323.226 185.166 323.896C185.166 324.544 184.935 325.111 184.472 325.597C184.009 326.059 183.454 326.291 182.806 326.291ZM176.803 326.256C176.133 326.256 175.554 326.025 175.068 325.562C174.606 325.076 174.374 324.509 174.374 323.862C174.374 323.191 174.606 322.612 175.068 322.127C175.554 321.641 176.133 321.398 176.803 321.398C177.451 321.398 178.006 321.641 178.469 322.127C178.932 322.612 179.163 323.191 179.163 323.862C179.163 324.509 178.932 325.076 178.469 325.562C178.006 326.025 177.451 326.256 176.803 326.256ZM188.681 346.173L189.028 341.316C189.56 341.316 190.011 341.188 190.381 340.934C190.775 340.656 191.179 340.205 191.596 339.581C192.012 338.933 192.498 338.065 193.053 336.978C193.747 335.59 194.464 334.503 195.205 333.716C195.968 332.93 196.743 332.375 197.529 332.051C198.339 331.704 199.149 331.53 199.958 331.53C200.976 331.53 201.925 331.75 202.804 332.19C203.683 332.629 204.446 333.231 205.094 333.994C205.742 334.734 206.239 335.59 206.586 336.562C206.956 337.51 207.141 338.493 207.141 339.511C207.141 340.737 206.875 341.848 206.343 342.842C205.834 343.814 205.117 344.589 204.192 345.167C203.29 345.722 202.249 346 201.069 346C200.074 346 198.917 345.827 197.599 345.48C196.28 345.133 194.892 344.404 193.435 343.293L195.205 339.095C196.245 339.812 197.217 340.332 198.119 340.656C199.045 340.98 199.808 341.142 200.409 341.142C200.872 341.142 201.254 341.096 201.555 341.003C201.855 340.911 202.075 340.76 202.214 340.552C202.353 340.344 202.422 340.066 202.422 339.719C202.422 339.234 202.306 338.736 202.075 338.227C201.844 337.718 201.531 337.29 201.138 336.943C200.768 336.573 200.328 336.388 199.82 336.388C199.334 336.388 198.917 336.573 198.57 336.943C198.246 337.29 197.923 337.799 197.599 338.47C197.298 339.118 196.928 339.881 196.488 340.76C195.956 341.824 195.436 342.715 194.927 343.432C194.418 344.126 193.874 344.681 193.296 345.098C192.741 345.491 192.082 345.769 191.318 345.931C190.578 346.093 189.699 346.173 188.681 346.173ZM230.991 350.233C230.273 350.233 229.66 349.99 229.152 349.505C228.666 349.019 228.423 348.417 228.423 347.7C228.423 346.983 228.666 346.37 229.152 345.861C229.66 345.352 230.273 345.098 230.991 345.098C231.685 345.098 232.274 345.352 232.76 345.861C233.269 346.37 233.524 346.983 233.524 347.7C233.524 348.417 233.269 349.019 232.76 349.505C232.274 349.99 231.685 350.233 230.991 350.233ZM230.227 359.672C228.469 359.672 226.827 359.452 225.3 359.012C223.773 358.573 222.443 357.914 221.309 357.034C220.176 356.155 219.285 355.068 218.638 353.773C218.013 352.477 217.701 350.985 217.701 349.296C217.701 347.723 217.944 346.266 218.429 344.924C218.938 343.583 219.632 342.368 220.511 341.281C221.414 340.194 222.478 339.222 223.704 338.366C224.93 337.51 226.271 336.781 227.729 336.18C229.209 335.579 230.759 335.104 232.379 334.757L232.448 335.382C231.893 335.22 231.28 335.035 230.609 334.827C229.938 334.619 229.209 334.422 228.423 334.237C227.659 334.052 226.838 333.901 225.959 333.786C225.103 333.647 224.201 333.578 223.253 333.578C222.42 333.578 221.633 333.635 220.893 333.751C220.176 333.844 219.54 333.959 218.985 334.098L218.256 329.379C218.927 329.171 219.644 328.997 220.407 328.858C221.194 328.72 222.003 328.65 222.836 328.65C224.085 328.65 225.242 328.766 226.306 328.997C227.37 329.205 228.365 329.471 229.29 329.795C230.239 330.119 231.141 330.455 231.997 330.802C232.876 331.125 233.732 331.403 234.565 331.634C235.397 331.843 236.253 331.947 237.132 331.947H238.52L238.971 337.152C238.092 337.152 237.075 337.267 235.918 337.499C234.784 337.73 233.605 338.065 232.379 338.505C231.153 338.944 229.95 339.488 228.77 340.136C227.613 340.783 226.561 341.535 225.612 342.391C224.687 343.247 223.947 344.196 223.391 345.237C222.836 346.278 222.559 347.411 222.559 348.637C222.559 349.748 222.767 350.696 223.183 351.483C223.6 352.269 224.178 352.905 224.918 353.391C225.658 353.877 226.514 354.235 227.486 354.467C228.481 354.698 229.545 354.814 230.678 354.814C231.951 354.814 233.234 354.675 234.53 354.397C235.849 354.12 237.167 353.726 238.486 353.218L239.908 357.451C238.22 358.237 236.543 358.804 234.877 359.151C233.211 359.498 231.661 359.672 230.227 359.672ZM251.967 346.173C249.816 346.173 248.15 345.954 246.971 345.514C245.814 345.075 245.004 344.392 244.542 343.467C244.079 342.518 243.813 341.327 243.743 339.893L243.015 320.6H247.873L248.601 337.568C248.648 338.632 248.763 339.43 248.948 339.962C249.133 340.494 249.48 340.853 249.989 341.038C250.521 341.223 251.296 341.316 252.314 341.316C253.193 341.316 253.818 341.547 254.188 342.01C254.581 342.449 254.778 343.004 254.778 343.675C254.778 344.392 254.535 344.994 254.049 345.48C253.563 345.942 252.869 346.173 251.967 346.173ZM252.014 346.173L252.361 341.316C253.611 341.316 254.848 341.246 256.074 341.107C257.3 340.969 258.492 340.76 259.648 340.483C260.805 340.205 261.904 339.847 262.945 339.407C264.009 338.968 265.004 338.435 265.929 337.811C265.235 337.395 264.483 337.036 263.674 336.735C262.864 336.434 261.996 336.215 261.071 336.076C260.169 335.914 259.209 335.833 258.191 335.833C257.821 335.833 257.428 335.845 257.011 335.868C256.618 335.891 256.213 335.937 255.797 336.007C255.38 336.053 254.964 336.122 254.548 336.215L253.854 331.461C254.524 331.276 255.23 331.149 255.97 331.079C256.734 330.987 257.404 330.94 257.983 330.94C259.232 330.94 260.377 331.079 261.418 331.357C262.482 331.634 263.454 331.981 264.333 332.398C265.235 332.814 266.068 333.231 266.831 333.647C267.618 334.063 268.358 334.41 269.052 334.688C269.769 334.966 270.463 335.104 271.134 335.104H272.418L272.973 339.719C271.978 339.766 271.041 339.962 270.162 340.309C269.306 340.633 268.45 341.05 267.595 341.558C266.762 342.044 265.86 342.553 264.888 343.085C263.94 343.617 262.864 344.115 261.661 344.577C260.458 345.04 259.07 345.422 257.497 345.722C255.924 346.023 254.096 346.173 252.014 346.173ZM262.424 354.154C261.753 354.154 261.175 353.923 260.689 353.46C260.227 352.998 259.995 352.431 259.995 351.76C259.995 351.089 260.227 350.499 260.689 349.99C261.175 349.505 261.753 349.262 262.424 349.262C263.095 349.262 263.662 349.505 264.125 349.99C264.61 350.499 264.853 351.089 264.853 351.76C264.853 352.431 264.61 352.998 264.125 353.46C263.662 353.923 263.095 354.154 262.424 354.154ZM275.052 344.612L276.752 340.205C277.608 340.575 278.429 340.853 279.216 341.038C280.002 341.223 280.789 341.316 281.575 341.316C282.385 341.316 283.056 341.246 283.588 341.107C284.143 340.945 284.559 340.714 284.837 340.413C285.115 340.113 285.253 339.754 285.253 339.338C285.253 338.944 285.126 338.401 284.872 337.707C284.64 337.013 284.212 336.111 283.588 335C282.963 333.867 282.049 332.467 280.847 330.802L284.976 328.06C286.086 329.633 287.046 331.172 287.856 332.675C288.666 334.156 289.29 335.544 289.73 336.839C290.192 338.112 290.424 339.234 290.424 340.205C290.424 341.408 290.1 342.461 289.452 343.363C288.827 344.242 287.891 344.936 286.641 345.445C285.415 345.954 283.9 346.208 282.096 346.208C281.425 346.208 280.673 346.15 279.84 346.035C279.007 345.919 278.163 345.746 277.307 345.514C276.474 345.283 275.723 344.982 275.052 344.612Z" fill="#A7A7A7"/>
</g>
</g>
<defs>
<filter id="filter0_d_192_1612" x="-5" y="0" width="527" height="419" filterUnits="userSpaceOnUse" color-interpolation-filters="sRGB">
<feFlood flood-opacity="0" result="BackgroundImageFix"/>
<feColorMatrix in="SourceAlpha" type="matrix" values="0 0 0 0 0 0 0 0 0 0 0 0 0 0 0 0 0 0 127 0" result="hardAlpha"/>
<feOffset dy="6"/>
<feGaussianBlur stdDeviation="2.5"/>
<feComposite in2="hardAlpha" operator="out"/>
<feColorMatrix type="matrix" values="0 0 0 0 0 0 0 0 0 0 0 0 0 0 0 0 0 0 0.1 0"/>
<feBlend mode="normal" in2="BackgroundImageFix" result="effect1_dropShadow_192_1612"/>
<feBlend mode="normal" in="SourceGraphic" in2="effect1_dropShadow_192_1612" result="shape"/>
</filter>
<filter id="filter1_d_192_1612" x="310.482" y="187.775" width="192.139" height="114.725" filterUnits="userSpaceOnUse" color-interpolation-filters="sRGB">
<feFlood flood-opacity="0" result="BackgroundImageFix"/>
<feColorMatrix in="SourceAlpha" type="matrix" values="0 0 0 0 0 0 0 0 0 0 0 0 0 0 0 0 0 0 127 0" result="hardAlpha"/>
<feOffset dy="7"/>
<feGaussianBlur stdDeviation="3.03108"/>
<feComposite in2="hardAlpha" operator="out"/>
<feColorMatrix type="matrix" values="0 0 0 0 0 0 0 0 0 0 0 0 0 0 0 0 0 0 0.5 0"/>
<feBlend mode="normal" in2="BackgroundImageFix" result="effect1_dropShadow_192_1612"/>
<feBlend mode="normal" in="SourceGraphic" in2="effect1_dropShadow_192_1612" result="shape"/>
</filter>
<filter id="filter2_d_192_1612" x="379.896" y="187.775" width="98.0526" height="29.859" filterUnits="userSpaceOnUse" color-interpolation-filters="sRGB">
<feFlood flood-opacity="0" result="BackgroundImageFix"/>
<feColorMatrix in="SourceAlpha" type="matrix" values="0 0 0 0 0 0 0 0 0 0 0 0 0 0 0 0 0 0 127 0" result="hardAlpha"/>
<feOffset dy="7"/>
<feGaussianBlur stdDeviation="3.03108"/>
<feComposite in2="hardAlpha" operator="out"/>
<feColorMatrix type="matrix" values="0 0 0 0 0 0 0 0 0 0 0 0 0 0 0 0 0 0 0.5 0"/>
<feBlend mode="normal" in2="BackgroundImageFix" result="effect1_dropShadow_192_1612"/>
<feBlend mode="normal" in="SourceGraphic" in2="effect1_dropShadow_192_1612" result="shape"/>
</filter>
<filter id="filter3_d_192_1612" x="13.8224" y="187.775" width="298.551" height="147.924" filterUnits="userSpaceOnUse" color-interpolation-filters="sRGB">
<feFlood flood-opacity="0" result="BackgroundImageFix"/>
<feColorMatrix in="SourceAlpha" type="matrix" values="0 0 0 0 0 0 0 0 0 0 0 0 0 0 0 0 0 0 127 0" result="hardAlpha"/>
<feOffset dy="7"/>
<feGaussianBlur stdDeviation="3.03108"/>
<feComposite in2="hardAlpha" operator="out"/>
<feColorMatrix type="matrix" values="0 0 0 0 0 0 0 0 0 0 0 0 0 0 0 0 0 0 0.5 0"/>
<feBlend mode="normal" in2="BackgroundImageFix" result="effect1_dropShadow_192_1612"/>
<feBlend mode="normal" in="SourceGraphic" in2="effect1_dropShadow_192_1612" result="shape"/>
</filter>
<filter id="filter4_d_192_1612" x="96.7696" y="27.8667" width="223.531" height="212.566" filterUnits="userSpaceOnUse" color-interpolation-filters="sRGB">
<feFlood flood-opacity="0" result="BackgroundImageFix"/>
<feColorMatrix in="SourceAlpha" type="matrix" values="0 0 0 0 0 0 0 0 0 0 0 0 0 0 0 0 0 0 127 0" result="hardAlpha"/>
<feOffset dy="7"/>
<feGaussianBlur stdDeviation="3.03108"/>
<feComposite in2="hardAlpha" operator="out"/>
<feColorMatrix type="matrix" values="0 0 0 0 0 0 0 0 0 0 0 0 0 0 0 0 0 0 0.5 0"/>
<feBlend mode="normal" in2="BackgroundImageFix" result="effect1_dropShadow_192_1612"/>
<feBlend mode="normal" in="SourceGraphic" in2="effect1_dropShadow_192_1612" result="shape"/>
</filter>
<filter id="filter5_d_192_1612" x="309.757" y="308.281" width="46.6951" height="61.0174" filterUnits="userSpaceOnUse" color-interpolation-filters="sRGB">
<feFlood flood-opacity="0" result="BackgroundImageFix"/>
<feColorMatrix in="SourceAlpha" type="matrix" values="0 0 0 0 0 0 0 0 0 0 0 0 0 0 0 0 0 0 127 0" result="hardAlpha"/>
<feOffset dy="4"/>
<feGaussianBlur stdDeviation="3.03108"/>
<feComposite in2="hardAlpha" operator="out"/>
<feColorMatrix type="matrix" values="0 0 0 0 0 0 0 0 0 0 0 0 0 0 0 0 0 0 0.5 0"/>
<feBlend mode="normal" in2="BackgroundImageFix" result="effect1_dropShadow_192_1612"/>
<feBlend mode="normal" in="SourceGraphic" in2="effect1_dropShadow_192_1612" result="shape"/>
</filter>
<filter id="filter6_d_192_1612" x="347.273" y="308.283" width="51.6822" height="57.5521" filterUnits="userSpaceOnUse" color-interpolation-filters="sRGB">
<feFlood flood-opacity="0" result="BackgroundImageFix"/>
<feColorMatrix in="SourceAlpha" type="matrix" values="0 0 0 0 0 0 0 0 0 0 0 0 0 0 0 0 0 0 127 0" result="hardAlpha"/>
<feOffset dy="4"/>
<feGaussianBlur stdDeviation="3.03108"/>
<feComposite in2="hardAlpha" operator="out"/>
<feColorMatrix type="matrix" values="0 0 0 0 0 0 0 0 0 0 0 0 0 0 0 0 0 0 0.5 0"/>
<feBlend mode="normal" in2="BackgroundImageFix" result="effect1_dropShadow_192_1612"/>
<feBlend mode="normal" in="SourceGraphic" in2="effect1_dropShadow_192_1612" result="shape"/>
</filter>
<filter id="filter7_d_192_1612" x="390.095" y="308.283" width="46.1121" height="58.9339" filterUnits="userSpaceOnUse" color-interpolation-filters="sRGB">
<feFlood flood-opacity="0" result="BackgroundImageFix"/>
<feColorMatrix in="SourceAlpha" type="matrix" values="0 0 0 0 0 0 0 0 0 0 0 0 0 0 0 0 0 0 127 0" result="hardAlpha"/>
<feOffset dy="4"/>
<feGaussianBlur stdDeviation="3.03108"/>
<feComposite in2="hardAlpha" operator="out"/>
<feColorMatrix type="matrix" values="0 0 0 0 0 0 0 0 0 0 0 0 0 0 0 0 0 0 0.5 0"/>
<feBlend mode="normal" in2="BackgroundImageFix" result="effect1_dropShadow_192_1612"/>
<feBlend mode="normal" in="SourceGraphic" in2="effect1_dropShadow_192_1612" result="shape"/>
</filter>
<filter id="filter8_d_192_1612" x="424.467" y="308.223" width="41.15" height="60.0423" filterUnits="userSpaceOnUse" color-interpolation-filters="sRGB">
<feFlood flood-opacity="0" result="BackgroundImageFix"/>
<feColorMatrix in="SourceAlpha" type="matrix" values="0 0 0 0 0 0 0 0 0 0 0 0 0 0 0 0 0 0 127 0" result="hardAlpha"/>
<feOffset dy="4"/>
<feGaussianBlur stdDeviation="3.03108"/>
<feComposite in2="hardAlpha" operator="out"/>
<feColorMatrix type="matrix" values="0 0 0 0 0 0 0 0 0 0 0 0 0 0 0 0 0 0 0.5 0"/>
<feBlend mode="normal" in2="BackgroundImageFix" result="effect1_dropShadow_192_1612"/>
<feBlend mode="normal" in="SourceGraphic" in2="effect1_dropShadow_192_1612" result="shape"/>
</filter>
<filter id="filter9_d_192_1612" x="457.134" y="306.086" width="49.7527" height="61.1312" filterUnits="userSpaceOnUse" color-interpolation-filters="sRGB">
<feFlood flood-opacity="0" result="BackgroundImageFix"/>
<feColorMatrix in="SourceAlpha" type="matrix" values="0 0 0 0 0 0 0 0 0 0 0 0 0 0 0 0 0 0 127 0" result="hardAlpha"/>
<feOffset dy="4"/>
<feGaussianBlur stdDeviation="3.03108"/>
<feComposite in2="hardAlpha" operator="out"/>
<feColorMatrix type="matrix" values="0 0 0 0 0 0 0 0 0 0 0 0 0 0 0 0 0 0 0.5 0"/>
<feBlend mode="normal" in2="BackgroundImageFix" result="effect1_dropShadow_192_1612"/>
<feBlend mode="normal" in="SourceGraphic" in2="effect1_dropShadow_192_1612" result="shape"/>
</filter>
<filter id="filter10_d_192_1612" x="83.3699" y="320.322" width="210.524" height="46.8191" filterUnits="userSpaceOnUse" color-interpolation-filters="sRGB">
<feFlood flood-opacity="0" result="BackgroundImageFix"/>
<feColorMatrix in="SourceAlpha" type="matrix" values="0 0 0 0 0 0 0 0 0 0 0 0 0 0 0 0 0 0 127 0" result="hardAlpha"/>
<feOffset dy="4"/>
<feGaussianBlur stdDeviation="1.73498"/>
<feComposite in2="hardAlpha" operator="out"/>
<feColorMatrix type="matrix" values="0 0 0 0 0 0 0 0 0 0 0 0 0 0 0 0 0 0 0.5 0"/>
<feBlend mode="normal" in2="BackgroundImageFix" result="effect1_dropShadow_192_1612"/>
<feBlend mode="normal" in="SourceGraphic" in2="effect1_dropShadow_192_1612" result="shape"/>
</filter>
</defs>
</svg>
