<svg width="33" height="32" viewBox="0 0 33 32" fill="none" xmlns="http://www.w3.org/2000/svg">
<g clip-path="url(#clip0_541_7145)">
<path fill-rule="evenodd" clip-rule="evenodd" d="M1.25688 14.1156H7.75807C8.16738 14.1156 8.50226 13.7807 8.50226 13.3714V6.87023C8.50226 6.46091 8.16738 6.12598 7.75807 6.12598H1.25688C0.84757 6.12598 0.512695 6.46091 0.512695 6.87023V13.3714C0.512695 13.7807 0.84757 14.1156 1.25688 14.1156Z" fill="#FFDC6E"/>
<path fill-rule="evenodd" clip-rule="evenodd" d="M7.08447 14.1156H7.75791C8.16722 14.1156 8.5021 13.7807 8.5021 13.3714V6.87023C8.5021 6.46091 8.16722 6.12598 7.75791 6.12598H7.08447V14.1156Z" fill="#FFCA28"/>
<path fill-rule="evenodd" clip-rule="evenodd" d="M5.69395 9.11841V6.12598H3.31982V9.11841C3.31982 9.35404 3.48201 9.54616 3.68089 9.54616H5.33301C5.53182 9.54623 5.69395 9.35404 5.69395 9.11841ZM22.8052 14.4316H26.0771L27.6341 21.6297H22.8052V14.4316Z" fill="#F7524B"/>
<path fill-rule="evenodd" clip-rule="evenodd" d="M22.8057 14.4316H26.0776L26.7074 17.3431L22.8057 15.8701V14.4316Z" fill="#CB413D"/>
<path fill-rule="evenodd" clip-rule="evenodd" d="M4.7951 16.6468H15.1296C15.8197 16.6468 16.3842 16.0823 16.3842 15.3923C16.3842 14.7022 15.8197 14.1377 15.1296 14.1377H6.04972C5.35966 14.1377 4.7951 14.7022 4.7951 15.3923V16.6468ZM12.3765 25.0951C12.3765 27.7171 10.2509 29.8427 7.62891 29.8427C5.00691 29.8427 2.88135 27.7172 2.88135 25.0951H12.3765Z" fill="#404049"/>
<path fill-rule="evenodd" clip-rule="evenodd" d="M9.99378 25.0957C9.99378 26.4018 8.93503 27.4605 7.62897 27.4605C6.32291 27.4605 5.26416 26.4018 5.26416 25.0957H9.99378Z" fill="#F0F0FC"/>
<path fill-rule="evenodd" clip-rule="evenodd" d="M30.7173 25.0957C30.7173 27.7177 28.5917 29.8433 25.9697 29.8433C23.3477 29.8433 21.2222 27.7177 21.2222 25.0957H30.7173Z" fill="#404049"/>
<path fill-rule="evenodd" clip-rule="evenodd" d="M28.3346 25.0957C28.3346 26.4018 27.2759 27.4605 25.9698 27.4605C24.6638 27.4605 23.605 26.4018 23.605 25.0957H28.3346Z" fill="#F0F0FC"/>
<path fill-rule="evenodd" clip-rule="evenodd" d="M1.96094 25.0949H15.3192V16.123H6.44688C3.97963 16.123 1.96094 18.1417 1.96094 20.6089V25.0949Z" fill="#F7524B"/>
<path fill-rule="evenodd" clip-rule="evenodd" d="M14.1821 21.792H22.0888V25.0957H14.1821V21.792Z" fill="#F7524B"/>
<path fill-rule="evenodd" clip-rule="evenodd" d="M26.878 10.7903L23.4194 11.3153C23.2482 11.3404 23.0919 11.4264 22.9792 11.5576C22.8664 11.6887 22.8048 11.8562 22.8057 12.0291V14.8866L26.878 15.5047C27.9555 15.6683 28.8529 14.4439 28.8529 13.1475C28.8529 11.9104 27.9865 10.6221 26.878 10.7903Z" fill="#EF444E"/>
<path fill-rule="evenodd" clip-rule="evenodd" d="M26.9243 15.5117C27.9813 15.6341 28.8532 14.4264 28.8532 13.1484C28.8532 11.9285 28.0107 10.6588 26.9243 10.7851V15.5117Z" fill="#FFDC6E"/>
<path fill-rule="evenodd" clip-rule="evenodd" d="M7.62919 19.4268C10.7597 19.4268 13.2974 21.9645 13.2974 25.095H1.96094C1.96094 21.9645 4.49869 19.4268 7.62919 19.4268Z" fill="#E14844"/>
<path fill-rule="evenodd" clip-rule="evenodd" d="M9.52832 11.5307L12.5927 12.9894L16.4208 11.1228L18.7884 13.01L24.2024 14.6029L24.9738 13.3053C23.2161 12.7184 21.8041 12.1479 20.0394 11.4468L18.7107 9.73573C18.7107 9.73573 18.7544 8.15986 17.8568 7.33542C16.9591 6.51098 16.9536 6.49023 16.9536 6.49023C12.1261 6.67167 10.2841 8.92236 9.52832 11.5307Z" fill="#FFDC6E"/>
<path fill-rule="evenodd" clip-rule="evenodd" d="M24.3532 14.842C24.8941 14.842 25.3352 14.4008 25.3352 13.86C25.3352 13.3191 24.8941 12.878 24.3532 12.878C23.8123 12.878 23.3712 13.3191 23.3712 13.86C23.3712 14.4008 23.8123 14.842 24.3532 14.842ZM9.89571 14.7685L16.4721 17.0396L16.4113 22.8464H18.5444L18.7324 16.0011C18.7502 15.3535 18.3792 14.7973 17.7885 14.5316L9.73764 10.9102L9.02914 12.4852C8.63958 13.3512 8.99783 14.4586 9.89571 14.7685Z" fill="#484A50"/>
<path fill-rule="evenodd" clip-rule="evenodd" d="M16.4068 22.5566L16.398 23.2966C16.3907 23.92 16.9234 24.4251 17.5468 24.415L18.4003 24.401L19.4406 24.3943C19.8883 24.3915 20.251 24.024 20.2481 23.5765L20.2474 23.4673C20.2444 22.995 19.8816 22.605 19.4219 22.5566H18.5328H16.4068Z" fill="#FFDC6E"/>
<path fill-rule="evenodd" clip-rule="evenodd" d="M18.0542 24.4067L18.4 24.401L19.4403 24.3943C19.8879 24.3915 20.2506 24.024 20.2478 23.5765L20.2471 23.4673C20.2441 22.995 19.8813 22.605 19.4216 22.5566H18.0543V24.4067H18.0542Z" fill="#FFCA28"/>
<path fill-rule="evenodd" clip-rule="evenodd" d="M25.9699 19.4268C29.1004 19.4268 31.6382 21.9645 31.6382 25.095H20.3018C20.3018 21.9645 22.8395 19.4268 25.9699 19.4268Z" fill="#E14844"/>
<path fill-rule="evenodd" clip-rule="evenodd" d="M7.62879 19.4268C10.7593 19.4268 13.297 21.9645 13.297 25.095H10.8076C10.7282 22.4764 8.98241 20.2771 6.59473 19.5212C6.93582 19.4583 7.28194 19.4267 7.62879 19.4268ZM25.9692 19.4268C29.0997 19.4268 31.6375 21.9645 31.6375 25.095H29.148C29.0686 22.4764 27.3229 20.2771 24.9352 19.5212C25.2763 19.4583 25.6224 19.4267 25.9692 19.4268Z" fill="#CB413D"/>
<path fill-rule="evenodd" clip-rule="evenodd" d="M24.354 12.878C24.8964 12.878 25.336 13.3177 25.336 13.86C25.336 14.4023 24.8964 14.8419 24.354 14.8419C24.2872 14.8419 24.2219 14.8352 24.1587 14.8225C24.6075 14.7319 24.9454 14.3354 24.9454 13.86C24.9454 13.3845 24.6075 12.988 24.1587 12.8975C24.223 12.8845 24.2885 12.878 24.354 12.878ZM12.8047 12.8861L17.2269 14.8753C17.8176 15.141 18.1864 15.6973 18.1708 16.3449L18.0212 22.5567H18.5532L18.7333 16.0012C18.7478 15.4042 18.4354 14.8848 17.9237 14.5992C17.915 14.5943 17.9062 14.5895 17.8975 14.5848H17.8974C17.862 14.5659 17.826 14.5481 17.7894 14.5316L9.73848 10.9102L9.5166 11.4035L12.8047 12.8861Z" fill="#404049"/>
<path fill-rule="evenodd" clip-rule="evenodd" d="M12.5908 7.52623C13.574 7.11798 14.7906 6.85948 16.2984 6.8028C16.5363 7.64011 17.2017 8.48655 17.9221 8.96861C18.0693 9.5508 18.0555 10.0483 18.0555 10.0483L19.3843 11.7594C20.7564 12.3045 22.1254 12.8545 23.5188 13.3439C23.6251 13.1723 23.7814 13.0376 23.9668 12.9577C22.6449 12.4877 21.3441 11.9647 20.0405 11.4468L18.7118 9.73573C18.7118 9.73573 18.7249 9.25955 18.5878 8.69373C18.4753 8.23023 18.262 7.70667 17.8578 7.33542C16.9602 6.51098 16.9546 6.49023 16.9546 6.49023C16.9063 6.49205 16.8582 6.49411 16.8104 6.4963C15.0185 6.58005 13.6456 6.95367 12.5908 7.52623Z" fill="#FFCA28"/>
<path fill-rule="evenodd" clip-rule="evenodd" d="M20.4145 2.89941C21.9125 3.0451 23.0088 4.3776 22.8632 5.8756C22.7175 7.37366 21.385 8.46998 19.887 8.32429C18.3889 8.1786 17.2926 6.8461 17.4383 5.34804L20.1508 5.61185L20.4145 2.89941Z" fill="#F6DCCD"/>
<path fill-rule="evenodd" clip-rule="evenodd" d="M20.485 2.17272C22.07 2.32684 23.3001 3.52891 23.5565 5.02616C23.5958 5.25541 23.532 5.46934 23.3736 5.63972C23.2152 5.81009 23.0064 5.88922 22.7749 5.86672L20.8693 5.68141C20.4735 5.64291 20.1192 5.93434 20.0807 6.33016L19.8955 8.2354C19.8729 8.46703 19.7549 8.65678 19.5571 8.77941C19.3594 8.90203 19.137 8.92341 18.9195 8.84066C17.4999 8.30034 16.5577 6.86178 16.7118 5.27709C16.8965 3.37797 18.5859 1.98803 20.485 2.17272Z" fill="#E14844"/>
<path fill-rule="evenodd" clip-rule="evenodd" d="M20.4854 2.17292C22.0703 2.32704 23.3004 3.52911 23.5569 5.02636C23.5961 5.25561 23.5323 5.46954 23.3739 5.63992C23.236 5.78829 23.0597 5.86748 22.8635 5.87054C22.8638 5.85461 22.8642 5.83867 22.8642 5.82267C22.8642 3.95867 21.3532 2.44767 19.4892 2.44767C19.1165 2.44767 18.758 2.50823 18.4229 2.61973C19.0465 2.25834 19.768 2.10205 20.4854 2.17292Z" fill="#CB413D"/>
</g>
<defs>
<clipPath id="clip0_541_7145">
<rect width="32" height="32" fill="white" transform="translate(0.0751953)"/>
</clipPath>
</defs>
</svg>
