<svg width="129" height="132" viewBox="0 0 129 132" fill="none" xmlns="http://www.w3.org/2000/svg">
<g clip-path="url(#clip0_198_1991)">
<path d="M127.628 48.8071C129.622 56.196 124.289 60.843 123.891 68.718C123.492 76.593 128.329 81.7549 125.599 88.9046C122.869 96.0543 115.823 96.6793 110.872 102.816C105.92 108.953 106.799 115.971 100.388 120.151C93.9768 124.331 87.9093 120.695 80.2965 122.749C72.6838 124.804 69.2691 130.998 61.6257 130.612C53.9823 130.225 51.2106 123.717 43.8442 120.904C36.4778 118.091 30.0741 121.096 24.1179 116.29C18.1617 111.485 19.7446 104.591 15.4383 97.9852C11.132 91.3799 4.18525 90.0467 2.19127 82.6578C0.197304 75.2689 5.53019 70.6219 5.92882 62.7469C6.32745 54.8719 1.49109 49.71 4.22099 42.5603C6.95089 35.4106 13.9968 34.7856 18.9481 28.6489C23.8994 22.5122 23.0207 15.4934 29.4318 11.3138C35.8428 7.13412 41.9104 10.77 49.5232 8.71558C57.1359 6.66119 60.5506 0.466436 68.194 0.853338C75.8374 1.24024 78.609 7.74814 85.9754 10.5608C93.3418 13.3734 99.7455 10.3688 105.702 15.1745C111.658 19.9802 110.075 26.8743 114.381 33.4797C118.688 40.085 125.634 41.4182 127.628 48.8071Z" fill="#F37531"/>
<path d="M55.009 86.7877C53.8238 86.7877 52.6383 86.3352 51.7332 85.4301L40.3822 74.0791C38.5725 72.2709 38.5725 69.3365 40.3822 67.5279C42.1919 65.7182 45.1237 65.7182 46.9334 67.5279L55.009 75.6039L83.8341 46.7799C85.6442 44.9705 88.5756 44.9705 90.3853 46.7799C92.1951 48.5896 92.1951 51.5228 90.3853 53.3311L58.2844 85.4301C57.3798 86.3352 56.1942 86.7877 55.009 86.7877Z" fill="#0D0D0D"/>
</g>
<defs>
<clipPath id="clip0_198_1991">
<rect width="129" height="131.465" fill="white"/>
</clipPath>
</defs>
</svg>
