<svg width="24" height="24" viewBox="0 0 24 24" fill="none" xmlns="http://www.w3.org/2000/svg">
<path d="M21 21.9996H3C2.59 21.9996 2.25 21.6596 2.25 21.2496C2.25 20.8396 2.59 20.4996 3 20.4996H21C21.41 20.4996 21.75 20.8396 21.75 21.2496C21.75 21.6596 21.41 21.9996 21 21.9996ZM19.02 3.48162C17.08 1.54162 15.18 1.49162 13.19 3.48162L11.98 4.69162C11.88 4.79162 11.84 4.95162 11.88 5.09162C12.2625 6.404 12.9697 7.59874 13.9363 8.56534C14.9029 9.53193 16.0976 10.2392 17.41 10.6216C17.4809 10.6448 17.5568 10.6478 17.6293 10.6301C17.7017 10.6124 17.7678 10.5749 17.82 10.5216L19.02 9.31162C20.01 8.33162 20.49 7.38162 20.49 6.42162C20.5 5.43162 20.02 4.47162 19.02 3.48162ZM15.61 11.5296C15.32 11.3896 15.04 11.2496 14.77 11.0896C14.5507 10.959 14.3371 10.8188 14.13 10.6696C13.96 10.5596 13.76 10.3996 13.57 10.2396C13.5088 10.195 13.4519 10.1448 13.4 10.0896C13.07 9.80962 12.7 9.44962 12.37 9.04962C12.34 9.02962 12.29 8.95962 12.22 8.86962C12.12 8.74962 11.95 8.54962 11.8 8.31962C11.6575 8.13154 11.5272 7.93447 11.41 7.72962C11.25 7.45962 11.11 7.18962 10.97 6.90962C10.9492 6.86484 10.9288 6.81984 10.909 6.77462C10.761 6.44162 10.326 6.34462 10.069 6.60162L4.34 12.3306C4.21 12.4606 4.09 12.7106 4.06 12.8806L3.52 16.7106C3.42 17.3906 3.61 18.0306 4.03 18.4606C4.39 18.8106 4.89 19.0006 5.43 19.0006C5.55 19.0006 5.67 18.9906 5.79 18.9706L9.63 18.4306C9.81 18.4006 10.06 18.2806 10.18 18.1506L15.902 12.4296C16.162 12.1696 16.063 11.7246 15.726 11.5796C15.6873 11.563 15.6486 11.5464 15.61 11.5296Z" fill="#F37531"/>
</svg>
