<svg width="24" height="24" viewBox="0 0 24 24" fill="none" xmlns="http://www.w3.org/2000/svg">
<path fill-rule="evenodd" clip-rule="evenodd" d="M22.7748 2.55903C22.9422 2.37944 23.0333 2.14191 23.0289 1.89648C23.0246 1.65104 22.9252 1.41687 22.7516 1.2433C22.578 1.06972 22.3439 0.970298 22.0984 0.965968C21.853 0.961638 21.6155 1.05274 21.4359 1.22008L1.22535 21.4306C1.13228 21.5173 1.05762 21.6219 1.00584 21.7381C0.954062 21.8543 0.92622 21.9798 0.923976 22.107C0.921731 22.2342 0.945131 22.3606 0.992778 22.4785C1.04043 22.5965 1.11135 22.7036 1.20131 22.7936C1.29127 22.8836 1.39843 22.9545 1.51639 23.0021C1.63435 23.0498 1.76071 23.0732 1.88791 23.0709C2.01511 23.0687 2.14056 23.0408 2.25677 22.9891C2.37298 22.9373 2.47757 22.8626 2.5643 22.7696L6.39799 18.9359C8.06283 19.7039 9.96893 20.2053 12.0001 20.2053C15.307 20.2053 18.2805 18.8778 20.4228 17.2331C21.4965 16.4096 22.3769 15.495 22.9934 14.6058C23.5997 13.7317 24.0001 12.8133 24.0001 11.9948C24.0001 11.1763 23.5997 10.258 22.9946 9.38514C22.3757 8.49461 21.4965 7.58008 20.4228 6.75777C20.0818 6.49503 19.718 6.23987 19.3365 5.99861L22.7748 2.55903ZM15.9538 9.38261L14.5643 10.7696C14.8176 11.2999 14.9002 11.8957 14.8008 12.475C14.7015 13.0543 14.4249 13.5885 14.0093 14.0041C13.5938 14.4197 13.0595 14.6962 12.4803 14.7956C11.901 14.895 11.3052 14.8123 10.7748 14.559L9.38535 15.9485C10.2963 16.5516 11.3876 16.8213 12.4746 16.712C13.5616 16.6026 14.5774 16.1209 15.3499 15.3484C16.1224 14.5759 16.6041 13.5601 16.7135 12.4731C16.8228 11.3862 16.5531 10.2948 15.95 9.38387L15.9538 9.38261Z" fill="#ADB5BD"/>
<path d="M12.8463 7.33365C12.8983 7.34339 12.9518 7.34043 13.0024 7.32504C13.053 7.30965 13.0991 7.28227 13.1368 7.24523L15.6 4.78207C15.6383 4.74441 15.666 4.69737 15.6804 4.64563C15.6949 4.59389 15.6955 4.53928 15.6822 4.48724C15.6689 4.43521 15.6421 4.38757 15.6047 4.34909C15.5672 4.31062 15.5203 4.28264 15.4686 4.26797C14.3398 3.9498 13.1728 3.78704 12 3.78418C8.69305 3.78418 5.71958 5.11176 3.57726 6.75639C2.50358 7.57997 1.62316 8.49449 1.00547 9.38376C0.399158 10.2579 0 11.1762 0 11.9947C0 12.8132 0.400421 13.7315 1.00547 14.6044C1.60656 15.448 2.31673 16.2083 3.11747 16.8654C3.17739 16.915 3.2537 16.9402 3.33133 16.9363C3.40897 16.9323 3.4823 16.8994 3.53684 16.844L7.25053 13.1303C7.28756 13.0926 7.31494 13.0464 7.33033 12.9959C7.34573 12.9453 7.34868 12.8917 7.33895 12.8398C7.20206 12.0864 7.24984 11.3111 7.47818 10.5803C7.70651 9.84947 8.10861 9.18488 8.65002 8.64347C9.19144 8.10205 9.85602 7.69996 10.5869 7.47162C11.3177 7.24328 12.093 7.19551 12.8463 7.33239V7.33365Z" fill="#ADB5BD"/>
</svg>
