<svg width="24" height="24" viewBox="0 0 24 24" fill="none" xmlns="http://www.w3.org/2000/svg">
<g clip-path="url(#clip0_402_4391)">
<path d="M12 8.72729C10.1946 8.72729 8.72729 10.1946 8.72729 12C8.72729 13.8055 10.1946 15.2728 12 15.2728C13.8055 15.2728 15.2728 13.8055 15.2728 12C15.2728 10.1946 13.8054 8.72729 12 8.72729Z" fill="#ADB5BD"/>
<path d="M12 3.8182C6.54546 3.8182 1.88729 7.21089 0 12C1.88729 16.7891 6.54546 20.1818 12 20.1818C17.46 20.1818 22.1128 16.7891 24.0001 12C22.1128 7.21089 17.46 3.8182 12 3.8182ZM12 17.4545C8.98911 17.4545 6.54546 15.0109 6.54546 12C6.54546 8.98906 8.98911 6.54546 12 6.54546C15.0109 6.54546 17.4546 8.98911 17.4546 12C17.4546 15.0109 15.0109 17.4545 12 17.4545Z" fill="#ADB5BD"/>
</g>
<defs>
<clipPath id="clip0_402_4391">
<rect width="24" height="24" fill="white"/>
</clipPath>
</defs>
</svg>
