<svg viewBox="0 0 1440 1024" fill="white" xmlns="http://www.w3.org/2000/svg">
<path opacity="0.1" d="M59.8156 1098.03C59.8156 1098.03 -318.599 591.289 206.897 172.667C206.897 172.667 131.385 405.203 257.053 413.931C276.495 415.338 295.373 405.485 306.08 389.157C371.45 291.75 639.411 -92.2444 809.598 -95.3411C809.598 -95.3411 652.373 111.295 829.323 125.935C860.88 128.468 891.312 113.266 907.655 86.24C969.08 -14.263 1172.23 -272.136 1607 -194.718C1607 -194.718 1134.19 -75.0716 1131.38 164.221C1130.81 202.227 1157.02 235.165 1193.65 244.455C1251.13 258.812 1348.9 263.035 1459.92 179.705C1459.92 179.705 1428.92 313.991 1102.92 482.622C1077 496.135 1053.89 514.434 1034.17 536.111C965.698 611.558 838.903 783.568 1007.96 873.655C1007.96 873.655 1184.35 612.966 1393.98 572.427C1393.98 572.427 1102.92 888.294 1074.18 1082.83C1045.44 1277.36 577.422 1477.8 383.284 1317.9C383.284 1317.9 660.826 1086.77 666.18 788.917C666.18 778.501 667.588 768.084 670.687 758.231C687.875 699.112 758.035 498.105 909.908 493.32C932.449 492.757 953.018 481.496 964.571 462.352C995.565 411.678 1032.76 321.029 896.383 327.785C882.295 328.348 869.615 320.184 864.261 307.234C850.737 273.452 819.461 215.177 767.897 225.875C744.792 230.66 726.196 248.396 717.18 270.073C703.937 301.604 685.057 357.908 696.891 404.359C702.527 426.599 696.892 449.684 685.058 469.109C646.737 531.325 554.035 649.282 381.312 697.422C355.107 704.742 330.876 717.129 308.335 732.613C233.385 784.413 89.6833 906.311 60.0977 1097.18L59.8156 1098.03Z"/>
</svg>
