<svg width="78" height="54" viewBox="0 0 78 54" fill="none" xmlns="http://www.w3.org/2000/svg">
<g filter="url(#filter0_d_163_2260)">
<path d="M75.7975 29.5845V41.4017H47.594V25.4546H52.2353V37.3441H55.7871V29.8735H60.5729V37.1996H63.0353V29.9458H68.4048V37.1273H70.7949V29.8013L75.7975 29.5845Z" fill="#A7A7A7"/>
</g>
<g filter="url(#filter1_d_163_2260)">
<path d="M58.472 25.4546H71.8845C71.8845 25.4546 72.3736 27.8669 70.217 27.9559C68.0603 28.0448 67.7879 25.9437 67.7879 25.9437C67.7879 25.9437 67.8991 28.1171 65.6868 28.0837C63.4746 28.0504 63.4579 26.0382 63.4579 26.0382C63.4579 26.0382 63.4968 28.106 61.3902 28.0893C59.2835 28.0726 58.4164 26.6552 58.472 25.4601V25.4546Z" fill="#A7A7A7"/>
</g>
<g filter="url(#filter2_d_163_2260)">
<path d="M45.9265 33.7867C45.782 28.206 34.8375 29.8735 34.8375 29.8735C34.8375 29.8735 31.7192 32.5583 24.76 32.1914C17.9287 31.8357 23.1036 25.6936 23.3037 25.4546C11.203 29.5845 20.6245 35.4542 20.6245 35.4542L40.8517 35.0207L40.7794 37.4108L14.6826 37.4886L14.4603 30.0903C14.4603 30.0903 11.9256 30.1626 6.34493 30.1626C0.764268 30.1626 1.12003 33.4254 1.12003 33.4254L1.41461 41.8353L9.38541 42.1243C9.52993 44.52 5.90583 45.8985 5.90583 45.8985C11.7811 48.7944 14.8271 41.9075 14.8271 41.9075H45.9265C45.9265 41.9075 46.0711 39.3729 45.9265 33.7867ZM7.19539 37.6387V35.6265H9.52994L9.8023 37.6387H7.19539Z" fill="#F37531"/>
</g>
<g filter="url(#filter3_d_163_2260)">
<path d="M16.7114 26.1774C16.7114 26.1774 9.24642 16.1722 19.6129 7.90683C19.6129 7.90683 18.1233 12.4981 20.6023 12.6704C20.9858 12.6982 21.3583 12.5037 21.5695 12.1813C22.859 10.258 28.1451 2.67635 31.5024 2.61521C31.5024 2.61521 28.4008 6.6951 31.8915 6.98413C32.514 7.03416 33.1144 6.734 33.4368 6.20039C34.6485 4.21603 38.6561 -0.875489 47.2327 0.653079C47.2327 0.653079 37.9057 3.01541 37.8501 7.74008C37.839 8.49047 38.3559 9.14081 39.0785 9.32423C40.2125 9.60771 42.1412 9.69109 44.3313 8.04579C44.3313 8.04579 43.7198 10.6972 37.2887 14.0267C36.7774 14.2935 36.3216 14.6548 35.9325 15.0828C34.5818 16.5724 32.0805 19.9686 35.4156 21.7473C35.4156 21.7473 38.8951 16.6002 43.0306 15.7998C43.0306 15.7998 37.2887 22.0364 36.7218 25.8772C36.1548 29.7181 26.9222 33.6757 23.0925 30.5185C23.0925 30.5185 28.5676 25.9551 28.6732 20.0742C28.6732 19.8686 28.7009 19.6629 28.7621 19.4684C29.1012 18.3011 30.4852 14.3324 33.4812 14.2379C33.9259 14.2268 34.3316 14.0044 34.5595 13.6265C35.171 12.6259 35.9047 10.8361 33.2144 10.9695C32.9365 10.9806 32.6863 10.8195 32.5807 10.5638C32.3139 9.89675 31.697 8.74616 30.6798 8.95738C30.224 9.05187 29.8571 9.40205 29.6792 9.83005C29.418 10.4526 29.0456 11.5643 29.279 12.4814C29.3902 12.9205 29.279 13.3763 29.0456 13.7599C28.2896 14.9883 26.4609 17.3173 23.0536 18.2678C22.5366 18.4123 22.0586 18.6568 21.614 18.9626C20.1354 19.9853 17.3006 22.3921 16.717 26.1607L16.7114 26.1774Z" fill="#F37531"/>
</g>
<g filter="url(#filter4_d_163_2260)">
<path d="M52.5966 47.4273V44.6814C52.5966 44.6814 46.588 44.5702 47.594 49.1948C48.6001 53.8194 52.7078 51.9963 52.7078 51.9963L52.8968 50.3677C52.8968 50.3677 50.3955 50.8846 50.4789 49.0892C50.5623 47.2938 52.6022 47.4328 52.6022 47.4328L52.5966 47.4273Z" fill="#F37531"/>
</g>
<g filter="url(#filter5_d_163_2260)">
<path d="M53.3582 44.8484L53.5749 51.8076L56.0429 51.663V49.2673L57.3102 50.3179V51.8076H59.5558V44.6816H56.9489L57.1268 48.945L56.0762 48.0723L56.004 44.6816L53.3582 44.8484Z" fill="#F37531"/>
</g>
<g filter="url(#filter6_d_163_2260)">
<path d="M63.8024 44.6816H61.3734L60.0671 51.2628L61.0454 52.0243L61.479 50.7514L63.002 50.8293L63.1465 51.6241L65.3921 51.4796L63.8024 44.6816ZM61.6958 49.523L61.9515 48.0723L63.1465 49.9177L61.6958 49.523Z" fill="#F37531"/>
</g>
<g filter="url(#filter7_d_163_2260)">
<path d="M70.0002 44.6812C70.0002 44.6812 64.2361 44.2644 65.6868 48.9946C67.1376 53.7248 70.0002 51.8016 70.0002 51.8016V50.4231C70.0002 50.4231 68.1158 50.3842 68.1881 48.7167C68.2604 47.0491 70.0002 47.5216 70.0002 47.5216V44.6757V44.6812Z" fill="#F37531"/>
</g>
<g filter="url(#filter8_d_163_2260)">
<path d="M73.3686 44.3369C73.3686 44.3369 69.4165 44.5926 70.9062 49.9176C70.9062 49.9176 71.3397 51.7685 74.0967 52.0242C74.0967 52.0242 76.0866 51.4406 76.3423 49.3062C76.3423 49.3062 77.3929 44.915 73.3686 44.3369ZM73.7521 50.1177C73.7521 50.1177 71.2119 49.2339 73.3352 47.3663C73.3352 47.3663 75.5808 48.4891 73.7521 50.1177Z" fill="#F37531"/>
</g>
<defs>
<filter id="filter0_d_163_2260" x="47.0382" y="25.4546" width="29.3151" height="17.3369" filterUnits="userSpaceOnUse" color-interpolation-filters="sRGB">
<feFlood flood-opacity="0" result="BackgroundImageFix"/>
<feColorMatrix in="SourceAlpha" type="matrix" values="0 0 0 0 0 0 0 0 0 0 0 0 0 0 0 0 0 0 127 0" result="hardAlpha"/>
<feOffset dy="0.833765"/>
<feGaussianBlur stdDeviation="0.277922"/>
<feComposite in2="hardAlpha" operator="out"/>
<feColorMatrix type="matrix" values="0 0 0 0 0 0 0 0 0 0 0 0 0 0 0 0 0 0 0.73 0"/>
<feBlend mode="normal" in2="BackgroundImageFix" result="effect1_dropShadow_163_2260"/>
<feBlend mode="normal" in="SourceGraphic" in2="effect1_dropShadow_163_2260" result="shape"/>
</filter>
<filter id="filter1_d_163_2260" x="57.9136" y="25.4546" width="14.5743" height="4.02437" filterUnits="userSpaceOnUse" color-interpolation-filters="sRGB">
<feFlood flood-opacity="0" result="BackgroundImageFix"/>
<feColorMatrix in="SourceAlpha" type="matrix" values="0 0 0 0 0 0 0 0 0 0 0 0 0 0 0 0 0 0 127 0" result="hardAlpha"/>
<feOffset dy="0.833765"/>
<feGaussianBlur stdDeviation="0.277922"/>
<feComposite in2="hardAlpha" operator="out"/>
<feColorMatrix type="matrix" values="0 0 0 0 0 0 0 0 0 0 0 0 0 0 0 0 0 0 0.73 0"/>
<feBlend mode="normal" in2="BackgroundImageFix" result="effect1_dropShadow_163_2260"/>
<feBlend mode="normal" in="SourceGraphic" in2="effect1_dropShadow_163_2260" result="shape"/>
</filter>
<filter id="filter2_d_163_2260" x="0.559635" y="25.4546" width="45.9869" height="22.5444" filterUnits="userSpaceOnUse" color-interpolation-filters="sRGB">
<feFlood flood-opacity="0" result="BackgroundImageFix"/>
<feColorMatrix in="SourceAlpha" type="matrix" values="0 0 0 0 0 0 0 0 0 0 0 0 0 0 0 0 0 0 127 0" result="hardAlpha"/>
<feOffset dy="0.833765"/>
<feGaussianBlur stdDeviation="0.277922"/>
<feComposite in2="hardAlpha" operator="out"/>
<feColorMatrix type="matrix" values="0 0 0 0 0 0 0 0 0 0 0 0 0 0 0 0 0 0 0.73 0"/>
<feBlend mode="normal" in2="BackgroundImageFix" result="effect1_dropShadow_163_2260"/>
<feBlend mode="normal" in="SourceGraphic" in2="effect1_dropShadow_163_2260" result="shape"/>
</filter>
<filter id="filter3_d_163_2260" x="13.5552" y="0.371094" width="34.2333" height="32.6845" filterUnits="userSpaceOnUse" color-interpolation-filters="sRGB">
<feFlood flood-opacity="0" result="BackgroundImageFix"/>
<feColorMatrix in="SourceAlpha" type="matrix" values="0 0 0 0 0 0 0 0 0 0 0 0 0 0 0 0 0 0 127 0" result="hardAlpha"/>
<feOffset dy="0.833765"/>
<feGaussianBlur stdDeviation="0.277922"/>
<feComposite in2="hardAlpha" operator="out"/>
<feColorMatrix type="matrix" values="0 0 0 0 0 0 0 0 0 0 0 0 0 0 0 0 0 0 0.73 0"/>
<feBlend mode="normal" in2="BackgroundImageFix" result="effect1_dropShadow_163_2260"/>
<feBlend mode="normal" in="SourceGraphic" in2="effect1_dropShadow_163_2260" result="shape"/>
</filter>
<filter id="filter4_d_163_2260" x="46.9246" y="44.6812" width="6.52795" height="9.05904" filterUnits="userSpaceOnUse" color-interpolation-filters="sRGB">
<feFlood flood-opacity="0" result="BackgroundImageFix"/>
<feColorMatrix in="SourceAlpha" type="matrix" values="0 0 0 0 0 0 0 0 0 0 0 0 0 0 0 0 0 0 127 0" result="hardAlpha"/>
<feOffset dy="0.833765"/>
<feGaussianBlur stdDeviation="0.277922"/>
<feComposite in2="hardAlpha" operator="out"/>
<feColorMatrix type="matrix" values="0 0 0 0 0 0 0 0 0 0 0 0 0 0 0 0 0 0 0.73 0"/>
<feBlend mode="normal" in2="BackgroundImageFix" result="effect1_dropShadow_163_2260"/>
<feBlend mode="normal" in="SourceGraphic" in2="effect1_dropShadow_163_2260" result="shape"/>
</filter>
<filter id="filter5_d_163_2260" x="52.8023" y="44.6816" width="7.30944" height="8.51558" filterUnits="userSpaceOnUse" color-interpolation-filters="sRGB">
<feFlood flood-opacity="0" result="BackgroundImageFix"/>
<feColorMatrix in="SourceAlpha" type="matrix" values="0 0 0 0 0 0 0 0 0 0 0 0 0 0 0 0 0 0 127 0" result="hardAlpha"/>
<feOffset dy="0.833765"/>
<feGaussianBlur stdDeviation="0.277922"/>
<feComposite in2="hardAlpha" operator="out"/>
<feColorMatrix type="matrix" values="0 0 0 0 0 0 0 0 0 0 0 0 0 0 0 0 0 0 0.73 0"/>
<feBlend mode="normal" in2="BackgroundImageFix" result="effect1_dropShadow_163_2260"/>
<feBlend mode="normal" in="SourceGraphic" in2="effect1_dropShadow_163_2260" result="shape"/>
</filter>
<filter id="filter6_d_163_2260" x="59.5113" y="44.6816" width="6.43664" height="8.73238" filterUnits="userSpaceOnUse" color-interpolation-filters="sRGB">
<feFlood flood-opacity="0" result="BackgroundImageFix"/>
<feColorMatrix in="SourceAlpha" type="matrix" values="0 0 0 0 0 0 0 0 0 0 0 0 0 0 0 0 0 0 127 0" result="hardAlpha"/>
<feOffset dy="0.833765"/>
<feGaussianBlur stdDeviation="0.277922"/>
<feComposite in2="hardAlpha" operator="out"/>
<feColorMatrix type="matrix" values="0 0 0 0 0 0 0 0 0 0 0 0 0 0 0 0 0 0 0.73 0"/>
<feBlend mode="normal" in2="BackgroundImageFix" result="effect1_dropShadow_163_2260"/>
<feBlend mode="normal" in="SourceGraphic" in2="effect1_dropShadow_163_2260" result="shape"/>
</filter>
<filter id="filter7_d_163_2260" x="64.8968" y="44.6719" width="5.65929" height="8.90621" filterUnits="userSpaceOnUse" color-interpolation-filters="sRGB">
<feFlood flood-opacity="0" result="BackgroundImageFix"/>
<feColorMatrix in="SourceAlpha" type="matrix" values="0 0 0 0 0 0 0 0 0 0 0 0 0 0 0 0 0 0 127 0" result="hardAlpha"/>
<feOffset dy="0.833765"/>
<feGaussianBlur stdDeviation="0.277922"/>
<feComposite in2="hardAlpha" operator="out"/>
<feColorMatrix type="matrix" values="0 0 0 0 0 0 0 0 0 0 0 0 0 0 0 0 0 0 0.73 0"/>
<feBlend mode="normal" in2="BackgroundImageFix" result="effect1_dropShadow_163_2260"/>
<feBlend mode="normal" in="SourceGraphic" in2="effect1_dropShadow_163_2260" result="shape"/>
</filter>
<filter id="filter8_d_163_2260" x="70.0147" y="44.3369" width="7.00695" height="9.07711" filterUnits="userSpaceOnUse" color-interpolation-filters="sRGB">
<feFlood flood-opacity="0" result="BackgroundImageFix"/>
<feColorMatrix in="SourceAlpha" type="matrix" values="0 0 0 0 0 0 0 0 0 0 0 0 0 0 0 0 0 0 127 0" result="hardAlpha"/>
<feOffset dy="0.833765"/>
<feGaussianBlur stdDeviation="0.277922"/>
<feComposite in2="hardAlpha" operator="out"/>
<feColorMatrix type="matrix" values="0 0 0 0 0 0 0 0 0 0 0 0 0 0 0 0 0 0 0.73 0"/>
<feBlend mode="normal" in2="BackgroundImageFix" result="effect1_dropShadow_163_2260"/>
<feBlend mode="normal" in="SourceGraphic" in2="effect1_dropShadow_163_2260" result="shape"/>
</filter>
</defs>
</svg>
