<svg width="32" height="32" viewBox="0 0 32 32" fill="none" xmlns="http://www.w3.org/2000/svg">
<g clip-path="url(#clip0_541_7235)">
<path d="M16 32C24.8366 32 32 24.8366 32 16C32 7.16344 24.8366 0 16 0C7.16344 0 0 7.16344 0 16C0 24.8366 7.16344 32 16 32Z" fill="#E66600"/>
<path d="M16.0002 28.6313C9.03515 28.6313 3.36865 22.9648 3.36865 15.9997C3.36865 9.03466 9.03509 3.36816 16.0002 3.36816C22.9653 3.36816 28.6318 9.0346 28.6318 15.9997C28.6318 22.9649 22.9653 28.6313 16.0002 28.6313Z" fill="#FFBA00"/>
<path d="M16 0C7.16344 0 0 7.16344 0 16C0 24.8366 7.16344 32 16 32V0Z" fill="#FFBA00"/>
<path d="M16.0002 3.36816C9.03509 3.36816 3.36865 9.0346 3.36865 15.9997C3.36865 22.9649 9.03509 28.6313 16.0002 28.6313V3.36816Z" fill="#FDE09C"/>
<path d="M7.3415 14.6218C6.58163 14.6218 5.96338 15.24 5.96338 15.9998C5.96338 16.7597 6.58163 17.3779 7.3415 17.3779C8.10138 17.3779 8.71957 16.7597 8.71957 15.9998C8.71963 15.24 8.10144 14.6218 7.3415 14.6218ZM24.6588 14.6218C23.8989 14.6218 23.2807 15.24 23.2807 15.9998C23.2807 16.7597 23.8989 17.3779 24.6588 17.3779C25.4187 17.3779 26.0369 16.7597 26.0369 15.9998C26.0369 15.24 25.4187 14.6218 24.6588 14.6218ZM16.9797 15.0795V11.5498C18.6465 11.8376 18.6467 12.8716 18.6467 13.2474H20.6059C20.6059 11.1889 19.2693 9.86171 16.9797 9.57459V8.16309H15.0205V9.57459C12.7309 9.86165 11.3943 11.1889 11.3943 13.2474C11.3943 15.3059 12.7309 16.6331 15.0205 16.9202V20.4498C13.3537 20.1621 13.3535 19.1281 13.3535 18.7523H11.3943C11.3943 20.8108 12.7309 22.138 15.0205 22.4251V23.8365H16.9797V22.425C19.2693 22.138 20.6059 20.8107 20.6059 18.7522C20.6059 16.6937 19.2693 15.3666 16.9797 15.0795ZM13.3535 13.2475C13.3535 12.8716 13.3537 11.8376 15.0205 11.5499V14.945C13.3538 14.6573 13.3535 13.6232 13.3535 13.2475ZM16.9797 20.4498V17.0547C18.6465 17.3425 18.6467 18.3765 18.6467 18.7523C18.6467 19.1281 18.6465 20.1621 16.9797 20.4498Z" fill="#E66600"/>
</g>
<defs>
<clipPath id="clip0_541_7235">
<rect width="32" height="32" fill="white"/>
</clipPath>
</defs>
</svg>
