<svg width="24" height="24" viewBox="0 0 24 24" fill="none" xmlns="http://www.w3.org/2000/svg">
<path d="M10.9381 1.93151C8.55368 1.93551 6.26802 2.88451 4.58194 4.57058C2.89587 6.25666 1.94687 8.54232 1.94287 10.9268C1.94486 13.3133 2.89274 15.6016 4.57881 17.2906C6.26489 18.9795 8.55168 19.9312 10.9381 19.9372C13.0547 19.9372 15.0049 19.1926 16.547 17.9605L20.2925 21.706C20.4822 21.8824 20.733 21.9785 20.992 21.9739C21.2511 21.9694 21.4983 21.8646 21.6818 21.6817C21.8652 21.4987 21.9706 21.2518 21.9759 20.9927C21.9811 20.7337 21.8857 20.4827 21.7098 20.2925L17.9643 16.5432C19.2435 14.9522 19.9409 12.972 19.941 10.9306C19.941 5.97183 15.8969 1.93151 10.9381 1.93151ZM10.9381 3.93466C14.8159 3.93466 17.9378 7.05277 17.9378 10.9268C17.9378 14.8008 14.8159 17.9378 10.9381 17.9378C7.06035 17.9378 3.94224 14.8121 3.94224 10.9343C3.94224 7.05655 7.06035 3.93466 10.9381 3.93466Z" fill="#6C757D"/>
</svg>
