<svg width="38" height="37" viewBox="0 0 38 37" fill="none" xmlns="http://www.w3.org/2000/svg">
<g clip-path="url(#clip0_541_7369)" filter="url(#filter0_d_541_7369)">
<g filter="url(#filter1_d_541_7369)">
<path d="M34.7173 16.7315V21.8814H22.7397V14.9316H24.7108V20.1131H26.2192V16.8574H28.2517V20.0501H29.2974V16.8889H31.5777V20.0186H32.5928V16.8259L34.7173 16.7315Z" fill="#A7A7A7"/>
</g>
<g filter="url(#filter2_d_541_7369)">
<path d="M27.3575 14.9316H33.0536C33.0536 14.9316 33.2613 15.983 32.3454 16.0217C31.4295 16.0605 31.3138 15.1448 31.3138 15.1448C31.3138 15.1448 31.361 16.092 30.4215 16.0774C29.482 16.0629 29.4749 15.186 29.4749 15.186C29.4749 15.186 29.4915 16.0871 28.5968 16.0798C27.7022 16.0726 27.3339 15.4549 27.3575 14.9341V14.9316Z" fill="#A7A7A7"/>
</g>
<g filter="url(#filter3_d_541_7369)">
<path d="M22.0305 18.5628C21.9691 16.1307 17.3211 16.8574 17.3211 16.8574C17.3211 16.8574 15.9969 18.0274 13.0414 17.8676C10.1403 17.7125 12.338 15.0358 12.423 14.9316C7.284 16.7315 11.2852 19.2895 11.2852 19.2895L19.8753 19.1005L19.8446 20.1422L8.76171 20.1761L8.6673 16.9519C8.6673 16.9519 7.59087 16.9834 5.22086 16.9834C2.85085 16.9834 3.00193 18.4053 3.00193 18.4053L3.12703 22.0704L6.5121 22.1963C6.57347 23.2404 5.03438 23.8411 5.03438 23.8411C7.5295 25.1032 8.82309 22.1019 8.82309 22.1019H22.0305C22.0305 22.1019 22.0919 20.9973 22.0305 18.5628ZM5.58203 20.2415V19.3646H6.57347L6.68914 20.2415H5.58203Z" fill="#F37531"/>
</g>
<g filter="url(#filter4_d_541_7369)">
<path d="M9.62385 15.2464C9.62385 15.2464 6.45359 10.8862 10.8561 7.28409C10.8561 7.28409 10.2234 9.28497 11.2762 9.36006C11.4391 9.37218 11.5973 9.28739 11.687 9.1469C12.2346 8.30875 14.4795 5.00463 15.9053 4.97799C15.9053 4.97799 14.5881 6.75601 16.0706 6.88198C16.3349 6.90378 16.5899 6.77297 16.7268 6.54042C17.2414 5.67563 18.9434 3.45674 22.5857 4.12289C22.5857 4.12289 18.6247 5.1524 18.6011 7.21142C18.5964 7.53844 18.8159 7.82186 19.1228 7.90179C19.6043 8.02534 20.4235 8.06167 21.3535 7.34465C21.3535 7.34465 21.0939 8.50012 18.3627 9.95112C18.1455 10.0674 17.9519 10.2249 17.7867 10.4114C17.2131 11.0606 16.1508 12.5406 17.5672 13.3158C17.5672 13.3158 19.0449 11.0727 20.8011 10.7239C20.8011 10.7239 18.3627 13.4418 18.1219 15.1156C17.8811 16.7895 13.9602 18.5142 12.3338 17.1383C12.3338 17.1383 14.6589 15.1495 14.7038 12.5867C14.7038 12.497 14.7156 12.4074 14.7416 12.3226C14.8856 11.8139 15.4733 10.0844 16.7457 10.0432C16.9345 10.0383 17.1068 9.94143 17.2036 9.77671C17.4633 9.34069 17.7749 8.56068 16.6324 8.61882C16.5143 8.62366 16.4081 8.55341 16.3633 8.44198C16.25 8.1513 15.9879 7.64987 15.556 7.74192C15.3624 7.7831 15.2066 7.93571 15.1311 8.12223C15.0201 8.39354 14.8619 8.87801 14.9611 9.2777C15.0083 9.46907 14.9611 9.66771 14.8619 9.83485C14.5409 10.3702 13.7643 11.3852 12.3172 11.7994C12.0977 11.8624 11.8947 11.969 11.7059 12.1022C11.078 12.5479 9.87407 13.5968 9.62621 15.2392L9.62385 15.2464Z" fill="#F37531"/>
</g>
<g filter="url(#filter5_d_541_7369)">
<path d="M24.8632 24.5073V23.3106C24.8632 23.3106 22.3114 23.2622 22.7387 25.2776C23.1659 27.293 24.9104 26.4985 24.9104 26.4985L24.9906 25.7887C24.9906 25.7887 23.9284 26.014 23.9638 25.2316C23.9992 24.4492 24.8655 24.5097 24.8655 24.5097L24.8632 24.5073Z" fill="#F37531"/>
</g>
<g filter="url(#filter6_d_541_7369)">
<path d="M25.186 23.3832L25.2781 26.416L26.3262 26.353V25.309L26.8644 25.7668V26.416H27.8181V23.3105H26.711L26.7865 25.1685L26.3404 24.7882L26.3097 23.3105L25.186 23.3832Z" fill="#F37531"/>
</g>
<g filter="url(#filter7_d_541_7369)">
<path d="M29.6219 23.3105H28.5904L28.0356 26.1786L28.4511 26.5105L28.6352 25.9558L29.282 25.9897L29.3434 26.3361L30.2971 26.2731L29.6219 23.3105ZM28.7273 25.4204L28.8359 24.7882L29.3434 25.5924L28.7273 25.4204Z" fill="#F37531"/>
</g>
<g filter="url(#filter8_d_541_7369)">
<path d="M32.254 23.3107C32.254 23.3107 29.8061 23.129 30.4222 25.1905C31.0383 27.2519 32.254 26.4138 32.254 26.4138V25.813C32.254 25.813 31.4538 25.7961 31.4845 25.0694C31.5151 24.3427 32.254 24.5486 32.254 24.5486V23.3083V23.3107Z" fill="#F37531"/>
</g>
<g filter="url(#filter9_d_541_7369)">
<path d="M33.6858 23.1602C33.6858 23.1602 32.0075 23.2716 32.6401 25.5922C32.6401 25.5922 32.8242 26.3989 33.9951 26.5103C33.9951 26.5103 34.8401 26.256 34.9487 25.3258C34.9487 25.3258 35.3949 23.4121 33.6858 23.1602ZM33.8487 25.6794C33.8487 25.6794 32.7699 25.2943 33.6717 24.4804C33.6717 24.4804 34.6253 24.9697 33.8487 25.6794Z" fill="#F37531"/>
</g>
</g>
<defs>
<filter id="filter0_d_541_7369" x="0.776627" y="0" width="36.4467" height="36.4467" filterUnits="userSpaceOnUse" color-interpolation-filters="sRGB">
<feFlood flood-opacity="0" result="BackgroundImageFix"/>
<feColorMatrix in="SourceAlpha" type="matrix" values="0 0 0 0 0 0 0 0 0 0 0 0 0 0 0 0 0 0 127 0" result="hardAlpha"/>
<feOffset dy="2.22337"/>
<feGaussianBlur stdDeviation="1.11169"/>
<feComposite in2="hardAlpha" operator="out"/>
<feColorMatrix type="matrix" values="0 0 0 0 0 0 0 0 0 0 0 0 0 0 0 0 0 0 0.25 0"/>
<feBlend mode="normal" in2="BackgroundImageFix" result="effect1_dropShadow_541_7369"/>
<feBlend mode="normal" in="SourceGraphic" in2="effect1_dropShadow_541_7369" result="shape"/>
</filter>
<filter id="filter1_d_541_7369" x="22.223" y="14.9316" width="13.0111" height="8.24213" filterUnits="userSpaceOnUse" color-interpolation-filters="sRGB">
<feFlood flood-opacity="0" result="BackgroundImageFix"/>
<feColorMatrix in="SourceAlpha" type="matrix" values="0 0 0 0 0 0 0 0 0 0 0 0 0 0 0 0 0 0 127 0" result="hardAlpha"/>
<feOffset dy="0.77516"/>
<feGaussianBlur stdDeviation="0.258387"/>
<feComposite in2="hardAlpha" operator="out"/>
<feColorMatrix type="matrix" values="0 0 0 0 0 0 0 0 0 0 0 0 0 0 0 0 0 0 0.73 0"/>
<feBlend mode="normal" in2="BackgroundImageFix" result="effect1_dropShadow_541_7369"/>
<feBlend mode="normal" in="SourceGraphic" in2="effect1_dropShadow_541_7369" result="shape"/>
</filter>
<filter id="filter2_d_541_7369" x="26.8397" y="14.9316" width="6.75083" height="2.44037" filterUnits="userSpaceOnUse" color-interpolation-filters="sRGB">
<feFlood flood-opacity="0" result="BackgroundImageFix"/>
<feColorMatrix in="SourceAlpha" type="matrix" values="0 0 0 0 0 0 0 0 0 0 0 0 0 0 0 0 0 0 127 0" result="hardAlpha"/>
<feOffset dy="0.77516"/>
<feGaussianBlur stdDeviation="0.258387"/>
<feComposite in2="hardAlpha" operator="out"/>
<feColorMatrix type="matrix" values="0 0 0 0 0 0 0 0 0 0 0 0 0 0 0 0 0 0 0.73 0"/>
<feBlend mode="normal" in2="BackgroundImageFix" result="effect1_dropShadow_541_7369"/>
<feBlend mode="normal" in="SourceGraphic" in2="effect1_dropShadow_541_7369" result="shape"/>
</filter>
<filter id="filter3_d_541_7369" x="2.48323" y="14.9316" width="20.0912" height="10.5117" filterUnits="userSpaceOnUse" color-interpolation-filters="sRGB">
<feFlood flood-opacity="0" result="BackgroundImageFix"/>
<feColorMatrix in="SourceAlpha" type="matrix" values="0 0 0 0 0 0 0 0 0 0 0 0 0 0 0 0 0 0 127 0" result="hardAlpha"/>
<feOffset dy="0.77516"/>
<feGaussianBlur stdDeviation="0.258387"/>
<feComposite in2="hardAlpha" operator="out"/>
<feColorMatrix type="matrix" values="0 0 0 0 0 0 0 0 0 0 0 0 0 0 0 0 0 0 0.73 0"/>
<feBlend mode="normal" in2="BackgroundImageFix" result="effect1_dropShadow_541_7369"/>
<feBlend mode="normal" in="SourceGraphic" in2="effect1_dropShadow_541_7369" result="shape"/>
</filter>
<filter id="filter4_d_541_7369" x="8.00276" y="4" width="15.1" height="14.9306" filterUnits="userSpaceOnUse" color-interpolation-filters="sRGB">
<feFlood flood-opacity="0" result="BackgroundImageFix"/>
<feColorMatrix in="SourceAlpha" type="matrix" values="0 0 0 0 0 0 0 0 0 0 0 0 0 0 0 0 0 0 127 0" result="hardAlpha"/>
<feOffset dy="0.77516"/>
<feGaussianBlur stdDeviation="0.258387"/>
<feComposite in2="hardAlpha" operator="out"/>
<feColorMatrix type="matrix" values="0 0 0 0 0 0 0 0 0 0 0 0 0 0 0 0 0 0 0.73 0"/>
<feBlend mode="normal" in2="BackgroundImageFix" result="effect1_dropShadow_541_7369"/>
<feBlend mode="normal" in="SourceGraphic" in2="effect1_dropShadow_541_7369" result="shape"/>
</filter>
<filter id="filter5_d_541_7369" x="22.1737" y="23.3105" width="3.33384" height="4.63471" filterUnits="userSpaceOnUse" color-interpolation-filters="sRGB">
<feFlood flood-opacity="0" result="BackgroundImageFix"/>
<feColorMatrix in="SourceAlpha" type="matrix" values="0 0 0 0 0 0 0 0 0 0 0 0 0 0 0 0 0 0 127 0" result="hardAlpha"/>
<feOffset dy="0.77516"/>
<feGaussianBlur stdDeviation="0.258387"/>
<feComposite in2="hardAlpha" operator="out"/>
<feColorMatrix type="matrix" values="0 0 0 0 0 0 0 0 0 0 0 0 0 0 0 0 0 0 0.73 0"/>
<feBlend mode="normal" in2="BackgroundImageFix" result="effect1_dropShadow_541_7369"/>
<feBlend mode="normal" in="SourceGraphic" in2="effect1_dropShadow_541_7369" result="shape"/>
</filter>
<filter id="filter6_d_541_7369" x="24.6693" y="23.3105" width="3.66538" height="4.3974" filterUnits="userSpaceOnUse" color-interpolation-filters="sRGB">
<feFlood flood-opacity="0" result="BackgroundImageFix"/>
<feColorMatrix in="SourceAlpha" type="matrix" values="0 0 0 0 0 0 0 0 0 0 0 0 0 0 0 0 0 0 127 0" result="hardAlpha"/>
<feOffset dy="0.77516"/>
<feGaussianBlur stdDeviation="0.258387"/>
<feComposite in2="hardAlpha" operator="out"/>
<feColorMatrix type="matrix" values="0 0 0 0 0 0 0 0 0 0 0 0 0 0 0 0 0 0 0.73 0"/>
<feBlend mode="normal" in2="BackgroundImageFix" result="effect1_dropShadow_541_7369"/>
<feBlend mode="normal" in="SourceGraphic" in2="effect1_dropShadow_541_7369" result="shape"/>
</filter>
<filter id="filter7_d_541_7369" x="27.5189" y="23.3105" width="3.29478" height="4.49213" filterUnits="userSpaceOnUse" color-interpolation-filters="sRGB">
<feFlood flood-opacity="0" result="BackgroundImageFix"/>
<feColorMatrix in="SourceAlpha" type="matrix" values="0 0 0 0 0 0 0 0 0 0 0 0 0 0 0 0 0 0 127 0" result="hardAlpha"/>
<feOffset dy="0.77516"/>
<feGaussianBlur stdDeviation="0.258387"/>
<feComposite in2="hardAlpha" operator="out"/>
<feColorMatrix type="matrix" values="0 0 0 0 0 0 0 0 0 0 0 0 0 0 0 0 0 0 0.73 0"/>
<feBlend mode="normal" in2="BackgroundImageFix" result="effect1_dropShadow_541_7369"/>
<feBlend mode="normal" in="SourceGraphic" in2="effect1_dropShadow_541_7369" result="shape"/>
</filter>
<filter id="filter8_d_541_7369" x="29.806" y="23.3066" width="2.9647" height="4.56732" filterUnits="userSpaceOnUse" color-interpolation-filters="sRGB">
<feFlood flood-opacity="0" result="BackgroundImageFix"/>
<feColorMatrix in="SourceAlpha" type="matrix" values="0 0 0 0 0 0 0 0 0 0 0 0 0 0 0 0 0 0 127 0" result="hardAlpha"/>
<feOffset dy="0.77516"/>
<feGaussianBlur stdDeviation="0.258387"/>
<feComposite in2="hardAlpha" operator="out"/>
<feColorMatrix type="matrix" values="0 0 0 0 0 0 0 0 0 0 0 0 0 0 0 0 0 0 0.73 0"/>
<feBlend mode="normal" in2="BackgroundImageFix" result="effect1_dropShadow_541_7369"/>
<feBlend mode="normal" in="SourceGraphic" in2="effect1_dropShadow_541_7369" result="shape"/>
</filter>
<filter id="filter9_d_541_7369" x="31.9808" y="23.1602" width="3.53696" height="4.64252" filterUnits="userSpaceOnUse" color-interpolation-filters="sRGB">
<feFlood flood-opacity="0" result="BackgroundImageFix"/>
<feColorMatrix in="SourceAlpha" type="matrix" values="0 0 0 0 0 0 0 0 0 0 0 0 0 0 0 0 0 0 127 0" result="hardAlpha"/>
<feOffset dy="0.77516"/>
<feGaussianBlur stdDeviation="0.258387"/>
<feComposite in2="hardAlpha" operator="out"/>
<feColorMatrix type="matrix" values="0 0 0 0 0 0 0 0 0 0 0 0 0 0 0 0 0 0 0.73 0"/>
<feBlend mode="normal" in2="BackgroundImageFix" result="effect1_dropShadow_541_7369"/>
<feBlend mode="normal" in="SourceGraphic" in2="effect1_dropShadow_541_7369" result="shape"/>
</filter>
<clipPath id="clip0_541_7369">
<rect width="32" height="32" fill="white" transform="translate(3)"/>
</clipPath>
</defs>
</svg>
