<svg width="33" height="32" viewBox="0 0 33 32" fill="none" xmlns="http://www.w3.org/2000/svg">
<g clip-path="url(#clip0_541_7142)">
<path d="M10.3125 1.55781C14.2414 0.000102371 18.818 0.107803 22.6422 1.91706C21.5525 1.75238 20.4441 1.87655 19.3655 2.05794C16.4359 2.6083 13.652 3.97942 11.4759 6.01643C9.38935 8.05657 7.9272 10.7635 7.51423 13.6595C7.24107 15.7116 7.49428 17.864 8.41996 19.7318C9.37387 21.6915 11.053 23.2988 13.0768 24.1282C15.0269 24.9492 17.2889 24.9401 19.2642 24.2074C22.228 23.1254 24.3575 20.204 24.601 17.0827C24.7542 15.0371 24.254 12.8609 22.8724 11.2919C21.5535 9.75614 19.6245 8.91018 17.6941 8.42866C17.5906 6.53484 18.4875 4.66392 19.91 3.43228C20.6999 2.72374 21.6802 2.27211 22.6939 1.98309L22.7709 1.95666C25.6729 3.34096 28.1387 5.624 29.7098 8.42677C31.0558 10.813 31.7579 13.5627 31.6883 16.3018C31.6751 19.8437 30.3441 23.3505 28.0627 26.0588C25.9053 28.6415 22.8879 30.4994 19.5992 31.2433C16.3018 32.0001 12.7541 31.6736 9.66805 30.2796C6.6484 28.938 4.09014 26.6059 2.46269 23.7371C1.1089 21.3531 0.392721 18.6044 0.452154 15.8621C0.45861 12.4454 1.67831 9.05494 3.80788 6.38309C5.50891 4.24966 7.76554 2.5533 10.3125 1.55781Z" fill="#E60000"/>
<path d="M19.3648 2.05766C20.4433 1.87626 21.5518 1.75218 22.6415 1.91686L22.798 1.94321L22.6932 1.98273C21.6795 2.27191 20.6992 2.72346 19.9092 3.43208C18.4868 4.66363 17.5899 6.53464 17.6933 8.42846C19.6237 8.9099 21.5528 9.75578 22.8717 11.2917C24.2533 12.8607 24.7535 15.0368 24.6003 17.0825C24.3568 20.2036 22.2273 23.1251 19.2635 24.2071C17.2882 24.9398 15.0262 24.9488 13.076 24.128C11.0522 23.2985 9.37316 21.6913 8.41926 19.7315C7.49358 17.8637 7.24037 15.7113 7.51361 13.6593C7.92649 10.7632 9.38864 8.05628 11.4752 6.01615C13.6513 3.97914 16.4352 2.60802 19.3648 2.05766Z" fill="white"/>
</g>
<defs>
<clipPath id="clip0_541_7142">
<rect width="32" height="32" fill="white" transform="translate(0.0751953)"/>
</clipPath>
</defs>
</svg>
